<mxfile host="app.diagrams.net" modified="2022-03-19T09:43:18.621Z" agent="5.0 (X11; Linux x86_64) AppleWebKit/537.36 (KHTML, like Gecko) Chrome/99.0.4844.51 Safari/537.36" etag="e-M-NJlpE1HXSA4lhEDy" version="17.1.3" type="github">
  <diagram id="GoE4hN0W9rtzfDCTe8IL" name="Page-1">
    <mxGraphModel dx="1623" dy="493" grid="1" gridSize="10" guides="1" tooltips="1" connect="1" arrows="1" fold="1" page="1" pageScale="1" pageWidth="827" pageHeight="1169" math="0" shadow="0">
      <root>
        <mxCell id="0" />
        <mxCell id="1" parent="0" />
        <mxCell id="KjhS5_wabgMHGVkk_YmI-2" value="" style="shape=image;verticalLabelPosition=bottom;labelBackgroundColor=default;verticalAlign=top;aspect=fixed;imageAspect=0;image=data:image/png,iVBORw0KGgoAAAANSUhEUgAAAugAAAGVCAYAAACsDgQSAAAABHNCSVQICAgIfAhkiAAAABl0RVh0U29mdHdhcmUAZ25vbWUtc2NyZWVuc2hvdO8Dvz4AAAAodEVYdENyZWF0aW9uIFRpbWUAc2FtLiAxOSBtYXJzIDIwMjIgMTA6Mjk6MDSuWAdlAAAgAElEQVR4nOzdeVyVZf7/8dfN4lEUBBdQRBFMXMZwAU2z1bLRsrJFLfs2pU3ZZvu3bWa+aZvZ5DRj6WRatlippWlmjWZGuU+p5UIIKSgICCoIshw4cP/+OL9zJ7GobOdA7+fjwSPPOfdy3efc0Pu+zue6bsM0TRMREREREfEIXu5ugIiIiIiI/EoBXURERETEgyigi4iIiIh4EAV0EREREREPooAuIiIiIuJBFNBFRERERDyIj7sb0FRNmTLF3U0QERERaTLmzZvn7iY0GQrodaATTUREROT01LF5dlTiIiIiIiLiQRTQRUREREQ8iAK6iIiIiIgHUQ26iIiISD3av38/27dvJykpiaysLIqLi2nZsiXBwcH07NmTmJgYevTo4fH72JICX+yAxD1gTwYjD8wAsEVAVD+4chAM616nXUg1FNBFRERE6kFaWhorVqwgKyuLoUOHcvPNNxMaGkrLli0pLi4mPT2dhIQE3n33XYKDgxk7dixhYWEet49dGfCvZXAiFYaOgEdvh94hEGCDPDskHIHvfoZZ/4a2XeHBGyC681ntQk7DME3TdHcjmqIpU6ZoFhcREREBYOvWrSxcuJAJEyYwYsSI0y6/fv16lixZwqRJkxg6dKjH7OPDH+DjGXDFA3DPxadf/t/fwtrZMO4pmBhb/XLKTWdHPegiIiIidbB161aWL1/OE088QWRk5BmtM2LECLp3784bb7wBcNoA3Rj7+PAH+Pg9eOpVGNLtjHbBPRdDTATMeMX5uKaQLmdOg0RFREREaiktLY2FCxdy9913n3FwdomMjOTuu+9m4cKFpKWluXUfuzKcPedPPXbm4dxlSDfneh/PcG5H6k496E1UYWEh6enp5OTkUFJS4u7miAdr0aIFQUFBhIaG4ufn5+7miIg0KytWrGDChAlnHZxdIiMjmTBhAitWrOD+++932z7+tcxZ1nK24dxlSDfn+v9aBm9VvQs5CwroTdDRo0fZt28f4eHhREdHY7PZ3N0k8WB2u53s7Gx27txJr1696NChg7ubJCLSLOzfv5+srKxqQ++ZGjFiBHFxcezfv7/SzCuNsY8tKc4BoffUMVjfczHc+IVze5rdpW5U4tLEFBYWsm/fPs4991zCwsIUzuW0bDYbYWFhnHvuuezbt4/CwkJ3N0lEpFnYvn37GQ++PJ2hQ4eyfft2t+zjix3O2VrqZR8jnNuTulFAb2LS09MJDw8nICDA3U2RJiYgIIDw8HDS09Pd3RQRkWYhKSmJ3r1718u2evfuTVJSklv2kbgHLupTL7vgoj7O7UndKKA3MTk5OXTs2NHdzZAmqmPHjuTk5Li7GSIizUJWVhahoaH1sq3Q0FCysrLcsg97snOe8/rQO8S5PakbBfQmpqSkRGUtUms2m02DikVE6onr7p31wXWjIXfsw8hz3oSoPgTYnNuTulFAFxEREamF6gJvbVQXxBtjH2aA8w6h9SHP7tye1I1mcWlGNm3adFbL9+3bl6CgoAZqjYiISPMWHBxMenp6rac/PFV6ejrBwcFu2YctAhKO1H6KxVMlHHFuT+pGAb2ZGT58+Bktt2nTJuLj4xXSRUREaqlnz54kJCTUS3hOSEigZ8+ebtlHVD/47uf6Cejf/ezcntSNSlx+x/r27Ut8fHyzHjRot9fTd3YiIiK/ERMTw9atW+tlW1u3biUmJsYt+7hyEGxdXy+7YOt65/akbtSD/jsWFBRkhfSz6Uk3TZPnn3++2lsGDxw4kD//+c/4+Lj39Nq/fz8vv/wyQ4cOZdKkSW5ti4iIND89evQgODiY9evXM2JE7ScSX79+PcHBwZVuINRY+xjWHdp2hX9/67zZUG39+1vndnSTorpTD/rv2O7du8nPzyc8PJz4+PhabcPPz4+goCCCgoKs2WV27tzJX//6VxwOR30296yVlpYCuL0dIiLSfI0dO5YlS5Zw4MCBWq1/4MABlixZwtixY926jwdvgLWz4b+HarUL/nvIuf6DN9RufalIAf13atiwYXTt2hWg1iUuhmHwzDPP8NJLL/HSSy8xe/Zsnn76aXx8fMjNzeXIkSP12eSz5uvr69b9i4hI8xcWFsakSZN44403zjpAHzhwgDfeeINJkyYRFhbm1n1Ed4ZxT8GMV84+pP/3kHO9cU85tyN1pxKX3ykvLy8CAwMJDAwEzn4GGJeysrIKj8PDw+nUqRNpaWkcP36cLl26ALB3714+/PBDjh49Cjj/2EyYMIGoqChr3dzcXJYvX86PP/6I3W6ndevW9OvXj+uvv57AwEBM0+Tjjz/myJEjXHDBBSxZsgRfX1+mT5+OYRisXr2ab7/9lvLyckJDQ60LEJfS0lIWL17M999/j91ux9fXl+HDhzNhwgS8vHStKiIitTN06FAAZs6cyYQJE86oFGX9+vUsWbKESZMmWeu7ex8TY53/nfEwXPHAmZW7/PtbZ8/5uKd+XV/qTgFd6sRVRgLOUpLt27eTkZGBl5eXNeLc9QcCICoqirKyMvbv38+sWbO45ZZbuOiiiygvL2f69OkUFhbStm1bevXqRWJiItu2bSMpKYkXXngBwzD4+eefSU9PZ88e532E27Vrh2mavPHGG/z0008AhISEkJSURGJiotU20zSZNWsWycnJBAYG0qtXL+Lj44mLiyMlJYUnn3wSwzAa620TEZFmZujQoYSFhbFixQri4uIYOnQovXv3JjQ01JrLPD09nYSEBLZu3UpwcDB/+9vfauzVdsc+JsZCv9fhX8vgxi9g6Ai4qI/zDqEBNuc85wlHnLO1bF3vrDmf/rp6zuubArrUmmmaPPPMM1W+dsUVV9C6dWvy8/NZtmwZhmHw0EMP0bt3b8A5knzhwoUsXryY2NhYsrOzKSwspHv37jz11FPW9v/v//6P7Oxsjh8/Tvv27a2e7i5dunDffffRvn17EhIS+Omnn7DZbPz1r38lODiY4uJinn32WY4dOwbAyZMnSU1NJSAggBkzZuDl5UV5eTmPPvooaWlplJaW0qJFi0Z410REpLkKCwvj/vvvZ//+/Wzfvp2PPvqIrKws6wZBwcHB9OzZk9tuu63KwZqeso/ozvDW/bAlBb7YAbPeAXuy8w6hZoBznvOofvDoPRoQ2lAU0KVOoqKiaNOmDeAsd0lLS+PYsWOsXbuWiIgIbDYbDoeD/v37W+Ec4LzzzuOrr77i8OHDFBYWEh4ezgsvvEBJSQmpqakcO3bMKpMBKvRuG4bB5MmTad++PeAclApw/fXXWzdgaNmyJbfccguzZ88GsGaUycvLY+bMmZx//vn06dOHl19+WbXqIiJSr3r06FHrcOxJ+xjW/f8H8OsbdDdSBQV0qTUvLy+mTJliBXSXzz//nFWrVvHxxx9z6623Vrv+qeG7uLiY999/n4SEhErLVVV60qpVK+vfrp7vkpKSCsucWn7TqlUrJk2axMKFC0lJSSElJQVwDiQdNWoUY8aMOc3RioiIiDQOBXSpNdM0KS4urhTQBw0axKpVqypMb1hVL3W7du04fPgwpmmyevVqEhISCAsL46qrrqJTp0506tSJF154gcOHD59Re9q2bVvh8akhHmDAgAHMmTOHzMxM4uPj2blzJ4mJiaxatYoePXrQp0+fMz10ERERkQajqSukTn57MyKHw8Hnn38OOOvEXXOj79u3r0KP9qFDhzh8+DDe3t74+/tb87Bfc801DBo0iNDQUHJycsjMzMQwDGs7VWnZsiUAGzduxDRN6/mvv/7a+ndCQgL33XcfCxcupFOnTowYMYJHH32USy65BHCWvoiIiIh4AvWgS62ZpsmMGTMqhOesrCxM08QwDEaNGkVkZCQREREkJyfzxBNPcPXVV1NSUsLKlSsxTZMxY8Zgs9mIjo4mLS2Njz76iJycHDIyMvj222+twP3ZZ58xYcIEysvLrX27XHbZZaxZs4bExEReeuklhgwZwo8//lhhFpfw8HB8fHzYunUrXl5exMTEsG/fPjZs2IBhGPTq1auR3jURERGRmimgS53k5uZWei4qKorbbruNDh06APDoo4/y+uuvk5CQwOLFi63lRo8ezejRowFnyN62bRvHjh3jo48+srYTGhpKXFwc3333HSNHjsRms2EYRoWe+5YtW/KXv/yFF154oUJ9eWxsLDt37qRVq1a0atWKW265hffee4/NmzezefNmwFnfPnHiRGs+eBERERF3U0CXs2YYBn/729/OeHlfX18efvhhMjMzrWkPu3Xrhr+/v7VMmzZtePHFF0lLS6OkpITAwEDatWsHOKds9Pb2JjAwkCeffLLKfYSEhPCvf/2L5ORkHA4HnTt3rrB9gPPPP5+YmBgOHz5MUVER3t7e9OjRQ7O4iIiIiEdRQJdG4xr4WZOqbqbgmk7xdAzDsG6OVB2bzXbaZURERETcSYNERUREREQ8iHrQm5lNmza5uwkiIiIiUgcK6M3I8OHD3d0EEREREakjlbiIiIiIiHgQBXQREREREQ+igC4iIiIi4kEM89RbMsoZc+dgTNWaS11oILGIiLiD8suZU0CvpSlTpjBv3jx3N0NERETE4yk3nR2VuIiIiIiIeBAFdBERERERD6KALiIiIiLiQRTQRUREREQ8iAK6iIiIiIgHUUAXEREREfEgCugiIiIiIh5EAV1ERERExIMooIuIiIiIeBAFdBERERERD6KALiIiIiLiQRTQRUREREQ8iAK6iIiIiIgH8XF3A0TqU2FhIenp6eTk5FBSUuLu5oiIiDQrLVq0ICgoiNDQUPz8/NzdnGZLAV2ajaNHj7Jv3z7Cw8OJjo7GZrO5u0kiIiLNit1uJzs7m507d9KrVy86dOjg7iY1Swro0iwUFhayb98+zj33XAICAtzdHBERkWbJZrMRFhZGQEAAu3fvxs/PTz3pDUA16NIspKenEx4ernAuIiLSCAICAggPDyc9Pd3dTWmWFNClWcjJyaFjx47uboaIiMjvRseOHcnJyXF3M5olBXRpFkpKSlRzLiIi0ohsNpsmZGggCugiIiIiIh5EAd3DOBwOjh071qj7PHbsGA6Ho1H3KSIiIiJV0ywuHsThcLBnzx7atWtH+/btG22/BQUFpKam0q9fP3x8GveUsNvtANWWpxQUFGCz2WrdrkOHDp31Op07d8bX17dW+xMRERGpKwV0D+EK5wUFBbRr167R919QUMCePXsaPKQ7HA4yMjI4duwYBQUFFV5r27Ytbdu2pXPnzvj4+FhtOuecc+p0wZKamnpWy+fk5NC3b1+FdBEREXELBXQPcGo4d6eGDumHDh0iIyOj2nKaEydOcOLECdLT0+natSupqak4HA7y8vLq/I1C165dz2i51NRUTp48SXx8vEK6iIiIuIUCupt5Sjh3aYiQfrbH6HA4SE5Oth6fOHGiXtrRrVu30y6TmppKmzZtFNJFRETEbTRI1I08LZy7uEJ6fQwcLSgoYPv27XU6xoKCgkYdxNq3b98KIb20tPSM13U4HJim2YCtExERkeZOAd1NPDWcu9RHSHc4HPz888/1Eq7rqxf9TCQkJBAQEECrVq04efIkGRkZZ7ReUVERDz30EE8//TTl5eU1Lpubm1sh+JeVlZGTk3Pa9epTeXk5Dz/8MM8995z13JEjR7j77rtZvnx5o7VDYP/+/UyZMoV3333X3U0REREPoBIXNzhdOM/LyzujgY0BAQG0bdu22tdPnDhBXl7eabdT3TJ1LXdJTU21Zmmpire3N23atAHg5MmTlJWVVbtsQUFBo8xsM2zYMPLy8sjLy6t1WD5dL3pCQgKvvvoqMTEx3HXXXQCsWLGCtWvXMnnyZM4777xa7fdsJScnU1hYyKWXXmo9t3XrVkzT5Nxzz22UNoiT62JNN/wQERFQQG90Z9Jz7hoseTpdu3Y9bUA/2xlMfqu2Id1ut5Oenl7la97e3kRGRtKuXTt8fHxISko67fGeyYVGffDy8iIwMJDAwEDg7GeAAefxGYZR7euumvZTa9td721j1rtv2rQJwzAYMmQIAKZpsnnzZlq2bElERESjtUNEREQqUkBvRJ5e1lKd2oT0mgL3ueeeS+vWra3lzuT9aMwSl7pyOBysXr2adevWUVxcjM1mY9KkSQwcOJAffviBDz74AIAdO3aQm5tLWFgY33zzDQBLlixhz5493Hjjjbz11ltERUVRXFzM119/TUlJCV26dOH222+3ZqUpLS1l8eLFfP/999jtdnx9fRk+fDgTJkzAy8tZwbZnzx6+++47YmJirN758vJydu7cSceOHQkODgYgPT2d3NxcLrzwQt566y1OnDjBPffcg7+/P6Wlpbz++usUFRVx9913065dO0zT5MMPPyQlJYXevXuze/duJk6cSFRUFAAffPABycnJjBkzhgEDBgCwYcMGvv76a4YOHcrWrVs5//zzueKKKwDYsmULX3/9Nf369WPs2LEApKWl8dZbbxEbG8tVV11V6b02TZOvv/6aNWvWkJ+fT2BgIIMHD+a6667DMAwWLFjAkSNHGDJkiLWf4uJi5s6dS3FxMePHj+ecc87hl19+YeXKlaSkpFBaWkpgYCDDhg3j6quvxsvLyzr+9u3b06VLF7788kvsdjthYWFMnjyZ7du3s27dOux2O61bt+bBBx+kc+fO1ntUXl5O9+7d+eyzz8jLyyMoKIixY8cydOjQas+jUz/b8vJy2rVrx8iRI7nwwgtrPP9KS0t5//33+e9//4tpmrRp04aLLrrIOhaAvXv38uGHH3L06FEAwsLCmDBhgvXZuT6Liy++mB9++IEDBw7QokULrrrqKvr06cN7771HWloapaWljBgxgnHjxtV4USoiImdHNeiNpKmGc5ezrUmv7m6ooaGhVjgH59znAwYM4LzzzqNfv37WtwLe3t6V1m0qIT0/P5/PP/+cli1b0qlTJ+x2O2+88QY///wzJ06coLCwEHCWM6Snp5ORkWGV9+Tm5lpTUSYkJLB8+XK++OILunXrRufOnUlLS+OFF14gKSkJ0zSZNWsWGzdupFWrVkRHR2OaJnFxccycOdMqs9m5cyc//fQTW7Zssdr4yy+/UFhYyODBg63Q9v333wMwdOhQcnJy2L9/vzWbTnp6OgkJCRw8eJAdO3YAzm9JtmzZQlZWFl5eXmRkZFjbKC0tZdu2baSmphIXFwc4w/SmTZvIzMwkMDCQjIwMNm7cSHl5udV7n5qayldffWWVfGzfvp309PQqb2TlOv6PP/6Y/Px8evbsSV5eHmvXrrXGAcTGxpKamsry5ctJSkoCYM6cOezbtw+Hw0FkZCRHjhzh73//O4mJiQQHB9OrVy9yc3P54osvrJrw4uJifvnlFzZt2sTSpUvx9vbGy8uLAwcO8Ne//pVPP/2UsrIyvLy8yMnJ4bnnnrO+9fnll1/YuHEjixYtomXLlvTu3ZucnBwWLlzIqlWrqjyHTp48yWOPPcbGjRvx8fGha9euHDlyhEWLFtVYp15cXMzjjz/Otm3b8PPzo3fv3pw8ebLCsaxfv57Zs2dz9OhRoqKi6NGjB2lpacyaNYvvvvsOgJSUFFJTU1m0aBH79u0jKCiIkydPsmTJEqZNm8aBAwcIDAy0LpCWLl1abZtEROTsqQe9ETT1cO5yNj3p1dWTh4aGVvm8j4+PdaOiU/fn6mF3lf3UVNLjCVyhePz48Vx22WUAfPTRR8TFxXH48GEuv/xywsLC+Mc//sHQoUOZNGkSAMuWLWPt2rXcddddxMTEUFRUZG3z5ptv5pJLLgHg3XffZfPmzXz00Uc89NBDpKamEhAQwIwZM/Dy8qK8vJxHH33U6t1s0aIFF110EYGBgZxzzjnWNrds2VKpvGXLli0EBAQQERHBkCFDSE5OZteuXURHR7Nnzx5r3R9//JHLL7/c6m2OiYlh2LBhrFmzhn379lFeXs6hQ4es8QfJycmUlpbicDhIS0sjMDCQ2NhYlixZQnZ2NidPnqRVq1YcPHgQcJ47hw8fJjw8nF27dmEYBgMHDqz0Xm/bto2kpCTCwsJ46qmn8PHxoby8nBdffJHU1FS2bt3K8OHDueSSS4iLi2PevHmcf/75JCYm4uPjw2OPPYaXlxfbt28H4KqrruKaa64BnBdZTzzxBPHx8ZSVlVU4312fbXFxMU888QTFxcVcdtlljB8/HtM0efbZZ8nIyKCwsBB/f3/rAqh///7ce++9gPNiaMGCBXz55ZfWeXKqJUuWUFxczMUXX8zEiRMByMrK4tlnn2XLli2MGjWKkJCQSuutWrWKwsJCgoODmTZtGt7e3hw5coRnnnmGH374gbFjx7Js2TIMw+Chhx6id+/egHPswcKFC1m8eDGxsbG0aNECgKCgIKZNm0bLli354osvWLlyJTabjb/+9a8EBwezd+9eZs+eXe0FuYiI1I560BtBcnJykw/nLgUFBRXmKD9bVfWEVqd169aEhobSs2dPYmNjqw33nsQwDAICAqxADVgh+MCBA8CvIb6qbyN++1xISAgXXXSR9Xj8+PH4+PiQn59vBb+8vDxmzpzJt99+y9GjR3n55ZeZM2eOFbLCw8O5+uqr6dOnD+Asb9mxYwfBwcGVylsGDBiAt7c3gwYNwtvbm71792KaJrt378YwDGw2mxW4d+7cCUBsbCwhISG0bduW7OxsSkpKiI+PB5yfod1u58iRIxw4cIDS0lIGDhyIj48P5557LuXl5aSkpJCRkWGVh5imyc8//0xxcTGZmZkEBwcTFBRU4X1x9biDc1rM7OxsDhw4QGZmJv379wew2nDTTTcRGhpKfn4+a9aswTAMHn74Yfz8/AD44x//yLRp0xg8eDAHDhzghx9+YNWqVdZFpqt047efrc1mo0OHDhiGYZXPGIZBv379ME3TuuAA57iE2267zXrsOp/Ly8utb1RcSktLrQuT3r17k5qaap074eHhmKZJSkpKpXPn1M/p7rvvtr6FCgkJYfLkyVx//fWkpaXhcDiIjo62wjnAeeedR1hYWKX2XHPNNbRs2RKAXr16ATBw4EDrvImMjMTX15fk5OQaB3mLiMjZUQ96I4iIiKCgoKBZhPTWrVu7bQBhQ9zdtCH8dpCoq1yjNjW6ERERVhAHrLKZ9PR07HY7kyZNYuHChaSkpFihzdfXl1GjRjFmzJgqt5mYmEhxcTGjRo2qUN5iGAbnn38+4Cw9CgkJ4ciRI2RkZJCens7AgQMJCQnhP//5D6mpqfz888/4+PjQq1cvDMMgNjaWdevWkZCQQHx8PAEBAdx8883MmzeP+Ph4Tpw4UaHX/rzzzmPbtm3Ex8cTFBSEYRhMmjSJ+fPns2fPHrp06YLD4ahQhnOq/Px8ANauXcvatWsrve6aEcUwDG6++WZmzZoFQHR0dIVvE7Kzs5k7dy5ZWVmVtvHbUqvqBgCfLpy2bduWVq1aWY9dQT49PZ2DBw9WKPsqLi62ZgKaN29eldurrtTMNcjYFapdXO95QkJCtW08fvy41TaXU4/fdR5Xte/TDYwWEZGz0zQSTxPn4+NDv379mnyZS+vWrc94oGhVNeTg/Jre1ftWnRMnTuDj41MhtPxenVrqAs5wdPToUdq0aUNQUBBt27Zlzpw5ZGZmEh8fz86dO0lMTGTVqlX06NHD6jU/1ebNmzEMg0GDBgG/lrf4+/tbd1t1Be7PPvuMTz/9FLvdTr9+/QgLC+PLL79k1apVHD16lN69e1s99YMGDWLdunWsXbuW1NRU+vTpw4ABA/D19WXz5s0UFRVhs9msAa5RUVHYbDZ27txJq1atsNls9O3bl44dO5Kamsp//vMfDMNg8ODBNb5H48aN4w9/+IMVyF114J06dbKO76OPPrKW37VrF7/88gvnnHOOFYKzsrIYMGAAl156KR06dMBms/HUU0/V5iOrUmFhYaWpN1NSUjAMg+7du5OdnV1pHVcZSuvWrSkvL8cwDBwOh1VvXxXX1KC/3dfOnTspLi62SsSqmi2oXbt2HD58WDfaEhHxACpxaSSukN5UQ+fZhHOg2lrxQ4cO1biew+EgKSmJ3bt3N+mLmTNR1Xt5anAyDIPdu3dbM20A/PDDDxQXF9OqVSsSEhK47777WLhwIZ06dWLEiBE8+uijVgmGa5Ci3W4nMzOToqIiSktL+emnnwgODqZjx44AHD58mNzcXGJiYipcWA0YMADDMKxyix49ehAaGorNZrNqs4cNG2YtHxERgb+/P/v377dKWQzDICwsjIyMDHJzcxk0aFCFKSV79uxpDYzt3bu3VV5jt9vZv38/gYGB1gVdQUEBGRkZlJaWYhiGNePIsWPH6Ny5M+Hh4YSHh7Nt2zbmzJlj1ZYvW7aM9PR0goODOf/88zFNk9dee42SkhKKi4vJzs62eu979+5Nhw4d2Ldvn7Wf+lBcXGy1B5w3hNq/fz9eXl6VervbtGljzflfWlpK165dCQ8Pp2vXrixZsoR///vfVm//qe+Ja13TNK3BuuAceDxv3jwWLVpkfb6u43M5dOgQhw8fxtvbm4CAgHo5ZhERqT31oDeiptqTfrbhHKB9+/ZV1qrb7XZ+/PHHKrfnGkzrGly4e/duIiMjT9vj7klM06SsrKzGXkhXCN+9ezeLFy/muuuus0LaihUrOHbsGMOHDwecPaLPPvss1113HZmZmdaMKNdeey0RERH4+PiwdetWvLy8iImJYd++fWzYsAHDMKya4eXLlxMXF0f//v25+OKLK5W3bNu2DcMwKk3517lzZ9q2bUtubi7+/v507NgRLy8vwsPDSUxMxNvbm759+1rLe3l50bdvX2t7UVFRVk+961xw9dq7DBs2zBqA6nqtX79+fPbZZ4Cz3tnLywvTNJk5cyZHjhzhT3/6E8OHD+eKK65gw4YNrF+/nmPHjhEbG8vWrVvZu3cv3t7eDB8+nD179vDVV19hGAZ33HEH4eHh/PLLL2RlZTF37lweeOABQkJCSEtLY86cOQwePHvNYGcAACAASURBVJg9e/bw008/AZCTk8OmTZuIjY2t8rOtrse6Km+//Tbp6em0atWKlStXUlZWxtChQytdtBuGwTXXXMP8+fOZM2cOl112GWFhYXzxxRdkZWUREhJCt27dqnxPJkyYwHPPPceKFSs4fPgwXbt2ZdWqVZimyfnnn09UVBQREREkJyfzxBNPcPXVV1NSUsLKlSsxTZMxY8ZY34icjdOd8yIicnYU0BvZmYT0tm3bnlEv1ulmNDnTGU/y8vKqncKwNuEcnAPobDZblXcSLSgoYPv27QQHB1ttPHbsWKUa4LKyMmtqvKYQ0g3DwDAMWrZsWWXPq6sGOSIigvbt23Ps2DHi4uK4/PLLiY2NZfXq1Rw5coSVK1daPdM2mw3DMFi8eLG1neuvv56YmBgAbrnlFt577z02b95sDZo0DIOJEydaN1tyDYYMCAggISGhQtmIaZrs2bMHf39/q/TExcvLiwEDBhAXF0e/fv2s3tfBgweTmJhIZGSktW0XV115UFAQ7dq1A5w138uXL8dms1kXDS69evWyZl9x1YV37doVf39/Tp48WeGuqm3btuXIkSPWxUz79u154okn+Pvf/85PP/1khWqbzcajjz5KmzZteOuttwC44oor6N69OwBTp05l+vTp/Pzzz+zZs4dx48bx2muvkZiYSGJiIgCXXnophw4dYv/+/SxevJhBgwZV+dm2aNECLy+vKkPtb2vOg4OD+fLLL63nBgwYYA0cdV20ubYTGxtLYWEhH374IevWrbPW6dKlC48//rh10fLb9yQsLIypU6cyd+5cvv/+e6snPTY2lptuugnDMHj00Ud5/fXXSUhIqHBejR49mtGjRwM13zjr1OM69TnVoIuI1B/DVLdHrUyZMqXaAVxnoqapF7t27WrVAjeGQ4cOVXnHzNqGc5cTJ05UmJ6vtry9vYmNja2xHZs2bbJ6nU/lOrbavKd1WfdMFBcXA78O6CsrK6O0tBRvb28cDgePPfYYw4YN45ZbbiElJQXTNOncuXOlgGS32zl8+DBFRUV4e3vTo0ePRr0jqbu5ZkwpKSkhKCjImlnlbDgcDlJTUyu8x6ZpcuzYMVq3bl1lKD3Ttj3//PMUFhbywgsvkJ6eTklJCYGBgdYFTE3sdjsHDx7E29ubdu3aVZrNpqbjcdW1BwYGVtn+zMxMa3rEbt264e/vfxZHJiLiVN3/f3+rrrnp90Y96G7i6eUudQ3n4OzxDA0NJT09vU5tiYyMrJcZXE5X/97Yflt77O3tbfVSu2bKKCwsxDCMGmfOsdlsREZGNlxDPZxroGVd+Pj4VHqPDcOgQ4cOddqui2tWlrCwsLNaz2azWbX2Z8PHx4fOnTvXuEynTp2sgbQiIuJZFNDdyFNDen2Ec5euXbtSXFxsTeF2tiIiIuqlvKWqbwg8mSvQnTqQT5qmwsJCa4YZERGRM6GA7maeFtLrM5yD8/j69OlTbRlNdby9venWrVu93Jzot7XVTUHLli257LLL6twzLO53+eWXU1JSohptERE5YwroHsBTQnp9h/NTdevWjZCQENLT0zl27FiVg0dd2rVrR7du3eplSsrGrOWvT76+vtxwww3ubobUkWEYXHbZZe5uhoiINDEK6B7i1JDuDg0Zzl1sNhsRERFERERw4sQJa+aYsrIyvL298fHxoX379thstgZrg4iIiIinU0D3IK6QXt2Uhw2ldevWhIaGNmg4/622bdue8TSQZ6JFixbY7XaFexERkUZit9trde8EOT3dSdTDuHqRG1P79u0bNZw3hKCgoCpvly4iIiINIzs7+4ynf5Wzo4AuzUJoaCgHDx60bm8vIiIiDScvL4+DBw/Wy2QOUpkCujQLfn5+9OrVi927d5OWllbjIFQRERGpHbvdTlpaGrt376ZXr16V7igt9aNp1zWInKJDhw74+fmRnp7Orl27NPe0iIhIPWvRogVBQUEMHDhQ4bwBKaBLs+Ln58c555zj7maIiIiI1JpKXEREREREPIgCuoiIiIiIB1FAFxERERHxIAroIiIiIiIeRAFdRERERMSDKKCLiIiIiHgQBXQREREREQ+igC4iIiIi4kEU0EVEREREPIgCuoiIiIiIB1FAFxERERHxIAroIiIiIiIeRAFdRERERMSDKKCLiIiIiHgQBXQREREREQ+igC4iIiIi4kEU0EVEREREPIgCuoiIiIiIB/FxdwOaqv79+7Np0yZ3N0NERETE4/Xv39/dTWhSFNBr6aeffuLee+91dzNEREREPN57773n7iY0KSpxERERERHxIAroIiIiIiIeRAFdRERERMSDKKCLiIiIiHgQBXQREREREQ+igC4iIiIi4kEU0EVEREREPIgCuoiIiIiIB1FAFxERERHxIAroIiIiIiIeRAFdRERERMSDKKCLiIiIiHgQBXQREREREQ+igC4iIiIi4kEU0EVEREREPIgCuoiIiIiIB1FAFxERERHxIAroIiIiIiIeRAFdRERERMSDKKCLiIiIiHgQBXQREREREQ+igC4iIiIi4kEU0EVEREREPIgCuoiIiIiIB1FAFxERERHxIAroIiIiIiIeRAFdRERERMSDKKCLiIiIiHgQBXRp0ubMmcOECRN4+eWXMU3T3c0RERERqTMF9CbugQcewDCMan9GjRrFs88+y4EDB9zd1AYRHx/P0qVL2bhxI+Xl5e5ujoiIiEidKaA3cWVlZTW+vmbNGp555hl69OjB559/3kitajze3t7Wvw3DcGNLREREROqHj7sbIHXjCqhhYWHMnTvXCqklJSVkZmYya9Ysq/f8jjvuICkpiYCAALe1V0RERERqpoDeTFxwwQWMGTOmUi/y5MmTufzyy9m0aRNZWVlkZmY26YDucDgwDMO6MPHz83Nzi0RERETql0pcmomCgoIqB0m2bNmSa6+91npcVFRU5foZGRk8+eSTFerX+/fvz4cffkhJSUmV62zbto0XX3yRW265hZCQEAzDICAggDFjxjB9+nT27t1b5Xq7d+/mlVde4Z///CcOhwOHw8GWLVuYM2cOr7zyCgsWLMBut1vL2+123nnnHYYNG4avry8+Pj7ExMTw9ttv8/HHH1f7njgcDlatWsWf/vQnq339+/fnz3/+Mx9++CEZGRnVrisiIiLiNqbUyl133eXuJpimaZpTp041AXP8+PFmWVlZpdfLy8vNG264wQTM4OBg8/jx45WWWbt2rQlU+xMZGWlmZmZWWm/8+PE1rgeY8+fPr7TeBx98YAKmv7+/+emnn5rR0dEV1jm1nRkZGWbfvn1Pu5+rr766wvHn5ORU2u5vf6p7P0RERKR+eUpuaipU4tJMFBUVVehBdzgc5OXl8dZbb7Fs2TIAbr/9dgIDAyus9+OPP3LFFVdYj//3f/+X66+/npycHB577DHi4+M5cOAAF110EXv27MHX17fSvkePHs2oUaMICwujsLCQdevW8e677wJw5513MmLECCIjI63lW7RoAUB+fj7XXXddtcdUWlrKNddcQ3x8PAD+/v7MnDkTf39/EhMTmTdvHllZWZXWM02Tv/zlL+zatQuAP/7xj9x55520b9+eX375hXfeeYdNmzbV/IaKiIiIuIu7rxCaKk+5EnT1oJ/uJzIy0iwpKamw7qm964D52WefVXi9tLTUvPvuu6t9PTEx0czOzq6yXZ9++qm13rvvvlvhtY8//rhC2+69914zISHBLCoqMk+cOGEePHjQLC8vN1euXGktc9VVV5m5ubmV2nfrrbdW6kE/efKk1es+efJk0+FwVGrfjz/+aI4cOdLMz88/szdaREREas1TclNToRr034kDBw4wfPhw0tLSKjzn6l2/4447GDNmTIV1fHx8eO655wgODgZg/vz5FeYa79mzJx06dKiwjsPhoKCggJiYGKvXPD8/v9p2rVmzhjlz5tCrVy9atmxJQEAA3bp1o6ysjJdffhmA4OBgFixYQNu2bSu177ffCPyWYRh4eVU+zfv378/atWtp06ZNjeuLiIiINDaVuDQTv51mEaCwsJBDhw7x97//naysLL7//nuGDRvGrl27CAoKqlASc9ttt1U5j3j79u258soreeedd9i7dy92u51WrVpZr6enp7NmzRq++eYb1qxZU2XJSU1tHjZsWJWvORwOcnJyAJgwYQKdOnU64+16e3vj4+M8td966y3y8/O57777iIqKokOHDtZrIiIiIp5ISaWZqG6aRYCpU6cydepU5s+fT1paGv/5z3+4+eabSUxMtJY5NXSf6tQpDUtKSiguLraWnTt3Lvfdd1+t21xSUoLD4ajytaKiIoqLiwGIjo4+q+22bNmS6dOnW/XtS5cuZenSpdbr48eP58477+Tyyy+vZctFREREGo5KXJqJ6qZZBLDZbDz++OPW4x9//NFa53RM0yQ3NxdwDu50DRJdsWJFhXB+//338+WXXxIfH09aWhopKSlWaUxtHDlyxLrB0qlTLp6psWPHsnbt2gqDU12WLl3KyJEjmTp16mnvxCoiIiLS2NSD/jvRunXrSs/169fvtOsZhkFoaCjg7PEuLS3FNE3eeecdwDmzyrp16xgyZEiF9YqLi+nUqdNZlbycqnv37kRHR1szsdTGyJEj2b9/P9nZ2aSkpLBr1y4WLVpEXFwcAK+//jq33XYbsbGxtd6HiIiISH1TD/rvRGZmpvVvVz33qeUwa9eurXK9goICvv76awAGDhxIQEAAhYWFJCUlAXDVVVcxePDgSuu5ymJqq6yszCp/WbJkSbWlMGeiY8eODB48mDvuuINvvvmGVatWWa/98ssvdWqniIiISH1TQG8mWrduXWX9OUBaWhr/8z//Yz3u3LkzAF27drXqu1966SWSk5Mrrbt8+XJrHvJLLrkEb2/vCoMwd+zYUWV4Xr16dZ16v/38/IiJiQFgw4YNbNiwodIyO3bsYMmSJZWez8zM5PHHH+fYsWNVbrt37961bpeIiIhIQ1NAbybWr1/PsmXLWL58OcuXL2fx4sXMmTOHW2+9la5du1ohe/jw4dx4442AM9T/7W9/A5xTIfbv35+4uDiKi4vJycnhlVde4U9/+hPgnOpw4sSJgHMQ5sUXXwxAYmIid999N3v37uXgwYOsW7eOSy+9tMYbEJ0JwzC44447rMcjRozg7bffJiUlhW+//ZZJkyYRExNTZQlNbm4uf//73+nQoQMzZswgPj6eEydOkJeXxw8//MANN9xgLTto0KA6tVNERESkvqkGvYlzDXLMyspi3LhxNS47evRo3n///QrTDN5www088sgj/OMf/yA/P59LL720ynXff//9ClMd3nXXXbz22msAvP3227z99tt1PZRKLrroIm6//Xar3v3UwF6VqgbJPv300zz99NNVLn///ffTs2fPOrdTREREpD6pB72Jq2rw56kGDx7ME088webNm1m9ejXt27ev8LphGMyaNcu6YVFV68fHx3PFFVdUeL5fv35s27atyplapk6dSkJCglWb7u/vX+H1Fi1aWP+tqVbdMAzmz5/P888/X+m14OBgNm7cyCOPPGI9dpX4nHPOOXzxxRdce+21VW43ODiY1atXM3v27GrLgkRERETcxTCrm5tPajRlyhTmzZvn7mbUq5KSEpKTkykpKQEgKCiIsLCwGtdxOBwcOHDAuoFRx44dK93xsz5kZ2eTmZmJj48P/v7+p22XS2FhITk5ORQVFQHQpk2bs7rpkYiIiNRdc8xNDUklLmJp0aIFvXr1Oqt1fHx8iIqKaqAW/apjx4507NjxrNfz8/PDz8+vAVokIiIi0jBU4iIiIiIi4kEU0EVEREREPIgCuoiIiIiIB1FAFxERERHxIAroIiIiIiIeRAFdRERERMSDKKCLiIiIiHgQBXQREREREQ+igC4iIiIi4kEU0EVEREREPIgCuoiIiIiIB1FAFxERERHxIAroIiIiIiIeRAFdRERERMSD+Li7AXJ2DMNwdxNERESkCTNN091NkNNQQG+Cpk2b5u4miIiISBMTHx/P0qVL3d0MOQMK6E3UJ5984u4miMhZ6Nu3L/Hx8e5uRp01l+OoTnM/Pvn90rndtCigN2G7d+92dxNE5AxNnz6d+Pj4Jv9721yOozrN/fjk98t1bkvToEGiIiIiIiIeRAFdRERERMSDKKCLiIiIiHgQBXQREREREQ+igC4iIiIi4kEU0EVEREREPIgCuoiIiIiIB1FAFxERERHxIAroIiIiIiIeRAFdpB4lJSVhGEaln3/961+UlZU16L6Li4vp378/CxYsaND9SMOq6hy68sor2bx5c522m5eXR1xcHMnJyfXU0po98MADVf4uGIbBjh07arXN4uJi/vCHP3DNNdc0+O/T790nn3xSp8+qKrt27WLTpk2UlpZWu79Tf/785z9z8ODBOu0zJSWFb775hpycnDptR6SxKaCLNIDg4GDuvPNOJk6cCMBDDz3E+++/36D79Pb2xuFwYLfbG3Q/0jiio6O58847ueqqq/jyyy8ZPnx4ncL18ePHufTSS1m9enU9trJ6oaGhjBs3jqFDh1rPjRs3juHDh9OyZctabdMwDK6++mouvPBCDMOor6ZKDcrLy+ttW7Nnz+b666+npKSk2mX++Mc/cueddzJ06FDeeustRowYQVFRUa33uX37dkaMGFHnoC/S2BTQRRrACy+8wJtvvskHH3xAQkICACdPngQgPz+fJ5980uolmjlzphWqHQ4Hb775JiEhIQwZMoSnn36arKws7HY7Dz74IC+99BKvvvoqd9xxB+Xl5ezYsYOLLrqIYcOGsWjRIoqLi912zFK/pk6dyptvvsnnn3/O3LlzATh27BgA69evp0ePHhiGwZAhQyr0cn7++ecMGzYMwzC44447+PHHH8nOzmbatGkAPPfcc6xbtw673c6cOXMICQkhICDAOtfqy5NPPsnSpUutC9Orr76aJUuWsHHjRvr06cP8+fMJCQnBMAzuuusujhw5AkBaWho33ngjq1ev5oEHHiAmJobZs2dbPeZ+fn5WwDdNk/nz5xMTE8OQIUOYPXs2eXl5AOzevZsbb7zR+gbis88+q7dj+72r7u8UQHZ2tvXtSf/+/XnjjTcoKSlhyZIlrFq1iqysLJ566ikKCgqq3PbMmTN588032bx5M7feeisnT56kuLjY+qyrOmeqO5d37tzJq6++CjjPx/379zfOGyRSD3zc3QCR5uiTTz6hTZs22O12Vq1aBUBUVBQOh4NrrrmGuLg4Ro4cSWFhIU8++SRJSUnMnz+fBQsWcM899zBy5EgiIiKYMWMGycnJvPnmm6xbt474+HjAGXaSk5OJiYkBYNCgQUyePNltxyv1z3XRZpommZmZAJSVlbFp0yYuu+wyAO68804roO7du9fqYb799tu54YYb+N///V/i4uJYs2YN33//PQBZWVkcP36cTz75hPvvv59nnnmGwsJCZsyYwdGjR3nzzTfr9ThM07T+XV5ejre3N//85z955JFHCA4O5qabbmL+/Pl8/fXX/PTTTxQVFbFs2TKWLVtGdHQ0u3btYseOHTgcDqZMmcKSJUvo0aMH9957LzNnzuTpp58mOjqa3NxcHnzwQU6ePMmDDz7I2LFjad++PW+88QYvv/wy1157Lfv27SMqKqpej+/3qLq/U4sWLeLxxx9n2bJl/OMf/2DLli3cc889BAYGkpGRYYX477//vtqeeVf5S35+PgcOHLCer+mcWblyZZXn8sSJE9m0aRMAO3fu1LeL0qQooIs0gDVr1rBmzZoKz7Vu3ZqUlBTi4uJ4/PHHeemllzBNk+uvv55Vq1Zx5MgRIiMjef7557nlllvIz89nxYoVFBQU4OXl/LIrODiYL7/8kujoaFasWAHAsmXLuP766/niiy+46qqrGv1YpWHcf//93H///dZjf39/wsPDefHFF/H392fbtm306dOH2267jQsuuIDPPvuMc845x1r2yiuvpEuXLgQEBNC1a1dWr15NREQE8+fPZ/z48dx3330AdOrUieHDh9OrVy969eqFaZoNVj5iGAbFxcUsWLCAoUOH8tVXX9GmTRsuvPBC7rvvPnbs2EHnzp0BmDx5MvPnz+fQoUOcd955LF++nLvuugsfHx9atWqF3W5n0aJFREZGsmHDBgCuvfZaMjMzSUtL48CBA/Ts2ZOYmBjmzJlDQUEBgYGBDXJcvzfV/Z0qLi7mv//9L61atSIqKooLLriAMWPGEB0dzU033URycjJLlixhzZo1+Pv7V7ntwYMHV3gcFRWFr69vjeeMa3zGb8/l4cOHs3LlSq699lrWrl1L3759G/y9EakvKnERaQAvvvgihYWF5Obm8t133wHw1FNPkZqaCkDPnj0xDAMvLy86dOhAVlYWKSkpdO7cmS+//JKIiAiio6PJysqiVatWGIaBj48PI0aMYODAgfj4+PDf//4XcNb6AlxwwQVERka654Cl3kVHRzN+/HhGjx7N1KlT2bRpEx06dGDHjh20bduWLl26AM6LNoDNmzdzwQUX0LdvX1577TX+8Ic/MHHiRPbs2YOPj4/VM+nqRXSNj7jnnnuIjo7m4Ycf5ujRow1e252Tk8PRo0fp3r07fn5+FY5h+/bt1nJjx47Fy8uLsLAwevbsSVJSErm5uRW25ePjw5AhQ2jTpg0BAQF88803zJ49mx49enDrrbeyZs0aBg8ezOjRo1m6dCk+PuqTqg/V/Z1q1aoVU6dOJSsrizFjxjBkyBBef/11qzzpt/+tyuDBg63z/tlnn2XDhg3k5+fXeM7UdC676t2rGpgq4sn010qkAXTs2NH6H5YrNAcGBlr/U8nPz7eWtdls+Pv707FjR+666y6SkpLYtWsXXbp0qdSbVF5ebvVw9ujRA8AKVBkZGRW+EpamberUqfz5z3+u8JxpmvTu3ZukpCQraLvCTu/evQGYO3cuXl5e7N+/nwULFvDkk08yatQoK9jYbDbAeWG3du1a/Pz82LBhA6+++ipTpkzh4osvJigoqMGOKyAggA4dOlBQUGCVv7hClOsbAMAa1OdwOMjJySEwMJC2bdtar5eVleFwODh8+LBVLvHaa6/RunVrxo0bx9SpU7n99tspKipi4cKFLF26lJEjR1Z6T+XsmKbJQw89VOXfKYfDwYUXXsiaNWvw9fVl9erVzJo1i7/85S+sWLECb29v4NdzsCrz58+nf//+FZ4rKCio8Zyp6Vx28fX1rdf3QaShqQddpAE88sgjTJgwgQkTJhAWFgY4A1TXrl3p27cvjzzyCHPnzuWll15i7ty5DBgwgC5dulihq6ioiLfffrtS4D51NoNzzz0XgGuuuYYPPviA8ePHN9LRSWOoql7WMAxGjBhBVlYWt956K8uXL+eGG24AYNSoUfznP//hkksuYd26dQwZMsQao+Dr62sF+a+++oqEhASmTp3KFVdcQWpqKn/84x/p1KkTLVq0aNAgY5omfn5+DBkyhFWrVvHUU0/x/vvvc8stt+Dv71/hgnTq1KnMmTOHe+65h/j4eK699lp8fX1xOByAc7Boz5492bBhA6+88govv/wyDz30ELt27SI9PZ0hQ4bwyiuv0L17d0aOHAnUHAylanfccQdXXnklV155JcOGDeO9996r9u+U3W5nxIgR3Hrrrfj6+nL55ZcDzt5uwzAoLCykqKiI5cuXV9ujXdXzNZ0zsbGxNZ7LriD/6aefcvz48YZ4i0Qahim1ctddd7llv4A5bdo0s1+/fm7Zv9QsMTHRBCr8DB482Hz55ZfN0tJS0zRNMz4+3oyMjKzwempqqmmaprlo0SLr+WuvvdYcPny4GRkZaWZlZZnR0dHmTTfdZJaVlVn7e/31163lr7vuOhMw58+f75Zjl5qd6e+t6xyq7nMsLy83n3/++Qrn2IIFC8zy8nLz+PHj5rhx4yq8NmPGDLOsrMzMysoy+/btawLmK6+8Yu7atavCeQiYn3/+eb0dh0tSUpIJmJMnT7bO3d+209/f39y4cWOF4z/1Z/To0WZOTo5ZVFRkRkdHm+PHjzfLysrMQ4cOWccEmOPGjTPz8/PN0tJS87nnnquwDddr9X18zdXHH39c6XMAzNdff73av1N5eXnm8uXLKywfHBxs/vzzz6Zpmubbb79tfd7Hjx+vcn8//PBDle2p6Zyp6Vzevn279dyWLVsa8B3zfK5z213Rz125qakyTPOUIfZyxqZMmcK8efMafb+GYTBt2jQ++eQTdu/e3ej7l/pRVlZm1Uh27NixQt1vfn4+DofjjMsM8vLyME2zwtf/4nmmT59er7+3OTk5lJSU0Lp1a9q0aVPhtby8PIqKiqp8zW634+3tbdVj5+TkUFpaSrt27c6oRrs+jyMrKwvTNGnfvr2176SkJKKionj33Xf505/+xPHjx2nXrt1ptwO/1iW7FBYWkp+fT4sWLc7496m+P6fmqqa/UyUlJeTm5uLt7U379u0rvWaaZq2/zajqnHGp7lx2lUP93r9BcZ3be/bswR3Rz125qalSDbqIG3h7exMSElLla9XNblCdgICA+miSNDE1Bc6AgIBqz4vfhpSGrDc/nd8Gavi1pj47OxvgtOG8uu2AszTCVXsv9aumv1MtWrSo9jNp0aJFnfZb3Xah+nPZ29vbqn8XaSoU0EVExGOEhITw6aef8oc//MHdTRERcRsFdBER8RhBQUGMHTvW3c0QEXErzeIiIiIiIuJBFNBFRERERDyIArqIiIiIiAdRQBcRERER8SAK6CIiIiIiHkQBXURERETEgyigi4iIiIh4EM2D3kT17duX6dOnu7sZInIWmsvvbXM5juo09+MTEc+ngN5ExcfHEx8f7+5miMgZ6tu3b7P4vW0ux1Gd5n588vvVt29fdzdBzoICehO2e/dudzdBRM7Q9OnTiY+Pb/K/t83lOKrT3I9Pfr9c57Y0DapBFxERERHxIAroIiIiIiIeRAFdREREVF1JNQAAIABJREFURMSDKKCLiIiIiHgQBXQREREREQ+igC4iIiIi4kEU0EVEREREPIgCuoiIiIiIB1FAFxERERHxIArozYi9EB4y4O7f/Hz+t5rXKyuFPV+Bo8S5jQcMOJHVOG0WERERkYp83N0AqV8mcO1z0P9GKLXD/u9g6QMQGAEXTK5mHRNevwJeOQa+LZ3PtWjZaE0WERERkVOoB72ZKQe6XwihvSG8P4yYCpHAgY/hzfbw7b9/XXbHSnjVgJdszsfPtIf8o2AA61+Bqf+/B/7beb+uE7/+1+dfMiA30/n8lkXwwXXwzgXO16YZkHe0kQ5aREREpBlRQG9mvIDCY1DmgJIi+GUbpABR/wNBN8Dn9zpfA1g7FvyA0cvAG7jmDWjl7wzoq5+DyZ/B6Mdgyd3Okpe0vTD7MhjxIPzfz+AA/q+zs0QmPwM2rAD793DvF5ALrH7QPe+BiIiISFOmEpdmxgDm31DxuU5A/6uh6yD4ej4cP+wM4oeAG7dA90HOgP7/2Lvv+Ciq/fH/r82mh4RAuKEFTUJN6E3AgCjFXEIJCgS8iIpggF9AERui+IMPerELUpSuAl46eMUC0lRAiiDNAAkQWkgI6X2z5Xz/2LtDQnZDNyG+n48HD9jZM6fNJLznzJkzbQeBs5t1msyojdCyNzQPt46mJ52AE/+FusBjM6z5jk+DV/0g4YD1sxswMg/0zhDxLvwyESxfgZP+L2q8EEIIIUQlIAF6JaOAIXOgeT8wGUDnBP5B1u/qeIMPcHwzVLvfevAD21wdUTebwOV/edRrdXWbBTAWwpGPoGnM1bJc3K3pC7LBmAPtIqzBuU3RXW6rEEIIIURlJAF6JWMBajYFv4DS3+l00HUybIuGqkDYU+DsejVALx5c611K71s7CDJ3FSvLBEbAw+cON0IIIYQQ4m9MAvRKyFzG0PUDz8K30yAZGPiKdZvFZB01T4y1jqg70uo9WBwFD++D+g/A2ietU2MC28DJ7+9gA4QQdiUnJzN9+nTi4+Pp0KED48aNo3r16gDs2bOHuXPnYjAYePrpp+nVqxfJycmsWLECNzc3LBYLrq6u6HQ6GjduzEMPPVTOrSkpOTmZJUuW8Nprr+HkdPXxqF27dnHlyhX69+9fIq2jfrjbdXRU7tGjR3n33XcBiImJ4cEHHyyx77Xt2LdvH3v37kWv12OxWHB3d6eoqIiIiAgCAwNLle0o/+zsbObNm8f27dt54IEHiI6Opk6dOnbrn5qaytSpU7l8+TL9+/fniSeeQKfTYTKZWLp0KXl5eVraNm3alGqDjcViYfLkybz++utUqVIFAKUUq1atYvny5dSqVYuYmBhatmxpd/8NGzawePFigoKCmDBhAvfff/91+9cmPj6eESNGsGPHjhLnSUXj6HwW4kbJWVPJOGGdR+5IjfuhHlADqNPYus3Vwzr1ZUYXyL7iOM92A6FdK/igg3Wllt3fwrid1lF4p2sv9Zysc9KFEHfGlStXaNmyJRaLhUmTJnHixAnat29PQUEBu3fvplOnTjz66KMMHDiQ3r17s2LFCsxmM4mJiaSlpZGZmcmFCxeIjo7mzJkz5d0cTVFREbGxsbz11lv88MMPKKUAa+C5e/duoqOjSUxM1NKX1Q93U1nlnj17lhYtWvDggw8yaNAgwsLC2LZtW5ntMBqNXLp0ibS0NAoKCti8eTMxMTFkZ2eXKttR/haLhcjISPbv38/EiRO5ePEiHTp0IDc3t1QeBoOBiIgIcnNzGT16NJMnT2b69OkA5OTkMHHiRPLy8igsLCQrKwuj0Wi3H86fP8/s2bNZuHBhiTQzZszg+eefZ9y4cYSGhtKqVStiY2NL7f/999/z2GOPMXz4cAICAmjevDkXLly44eNqNpvR6/XodLobOGp/PUfnsxA3TYlbEh0dXS7lAmrKlCmqWbNmt7S/xaLUKyi1+YPS3xnybyyPzMtKJZ9SylR0S1UQ4m/pdn5ulVLqp59+Uo0aNVImk0kppVRWVpby9/dXhw4dUsuWLVPPPfeclnbmzJlq3LhxpfJYsmSJ6tu3r5bHrbjddlwrLi5OYb2Jp6KiopTZbFZKKbV69Wpt++zZs7X0ZfXDneCofWWVO2LECPX2229raRcvXqwefvhhZTabHbajOIvFoqKiotSCBQvsfu8o/+zsbOXv76/Onj2rlFIqJydHAerUqVOl8li1apUKDQ1VRqNRKaXUkSNHlL+/v8rKylJxcXGqW7du1+2bgoIC1aJFCwUof39/lZ6eXqL+33zzjfa5W7duas2aNUoppb766iu1ceNGVVBQoIKDg9XPP/+spQsPD1ezZ8++4eMaFxen/P391aRJkxSgwsPDVUJCgsrNzVVDhgxR8fHxWto5c+aopUuXltg/ISFBTZgwQTvPin/Ozs5W48eP19q3a9cubb9ffvlFBQcHK0DNmDFDq+cnn3yi1q9fr3r37q1mz57t8HyuCGzndnmFfuUVN92rZIpLJTL6JgYU1r5i/XO39XkT+ky7++UIUdk1bdqUpUuXotdbl0U6f/48KSkpVK9enTp16rBixQoiIyOpUqUK77zzDnPnzi2xf3x8PMOHDycpKUnLoyJo2LAhSilWr15dos4DBw5EKcXIkSNLpC+rH+6mssrV6/XUrVtXS9upUydtRNpRO4pbu3Ythw4dYvny5Xa/d5S/yWQiNDSUDz/8kDFjxrB69WqCg4PtTnHR6XQ0bNhQm24RHBxMlSpVSEhIIDMzk23bttGpUyf27NnDjBkziImJwdm5ZIjg7u7O4cOHOXXqFGFhYSXybt26NdOnT6d27dqcOnWKbdu28fnnnwOwf/9+GjdurOVRtWpVbb9hw4axevVq+vfvf8PHNSUlhczMTI4dO8bMmTPp3r07R48eJSUlhU2bNtGgQQMKCwuZM2cOs2bNKrFvYWEhW7Zs0Ua2i3+eO3culy5d4ty5c+zevZuwsDBSUlJISEjgoYceYt26dQQGBjJw4EDy8vKYNGkS8fHxvPjii0yePJlHHnnE4fksxM2SAL0S+fw6d9IyLsHPH8IDo65ObxFC3Btq165N7dq1Afj222/p168fY8eOpW7duuh0OnJycujTp4+WvnhAp5Ri9OjRfPDBB9SqVesvr/udVFY/lEe5fn5+7Ny5kzFjxmhpbUGmyWS6br4ZGRnExMSwZs0aLSBOSEjAYDAAUKNGDYf5A/Ts2ZM33niD2bNnA9C3b19cXFy4cuUKaWlpWh6//PILPXv21AJ0vV6Pu7s7BQUFJCQk4O3tzZtvvolOp2P48OEkJiby/vvv262zsjNto127drz++us88MADAPj7++Pt7Q3Ap59+Clin6qSmphIUFKTt5+rqSnp6OrVq1dKO4fWOa3BwMDNmzMDFxYVPPvmE4OBgYmNjef7553n11VcZNWoUx48fJzs7m/bt25fY19Z3tikyxT8nJibi6emJi4sLQ4YMISQkBGdnZxYtWsTkyZN57LHHAFi4cCEjR45kwoQJGAwG3nnnHSZNmmS3r4S4VTIH/W+kWh3o/7EE50Lcqy5evEjLli3p168f69evZ9asWTg5OfHKK68wduxYDAYDFouFjz76iBEjRmgBom1Ec+jQoeXcgjvDUT+UR7keHh7UqlWr1NxxX19fLUAty9atW/H19aVTp06ANfgdM2YMISEhhISEcPLkSYf5X758mTfeeIODBw+ilCIhIYG9e/eye/duvvvuOy2PefPmERoaSmZmZok8CgsLqVu3LsOGDSMpKYnevXsTERHBqlWr+PLLL+3Oh7ensLCQUaNG8Z///AelFHl5eXTq1IlFixaVSFe1alVcXV21iw+bjh07otfrb/i41q1bVwus9Xo9NWrUACAsLIy4uDguX77Mli1beOKJJ657DIrPZX/xxRc5ePAgderUQafTsWPHDry8vHBzc2PatGnodDp0Oh3dunUjNzdXmx9vuyMgxJ0kAboQQtwDMjIy6Nq1K+Hh4RQWFmqrgZhMJi5cuEDPnj21VVr69etHamoq+fn5gDUIHDJkyD0/eg6O+6G8ytXpdAQFBfHrr79qaWNjY6lZs+Z1LxqUUnz22We8/vrr2ui5Tqdj3bp15ObmkpubS1hYmMP8k5KSCA4OplmzZgAEBgbSt29fTp48yb/+9S8tj9deew0/Pz++/vprzGYzYF1lJDc3lypVqrB161aysrK0/KtXr06VKlVwcblmvd0y+ubMmTPatBdPT0+GDh3K3r17sVgsWjoPDw98fHyIj4/Xtv3666/UrFnzpo6r7c6ATWFhIQB+fn4MGTKEL774gmXLljFo0CC7+5tMJu0uQEZGRokAe8+ePaSnp/P9998zfvx4Dh8+zJUrV5g5cyZGo5GCggISExNZv3491apVu6H+EeJWSIAuhBD3gK1bt5Kbm8uwYcM4e/YsJ06c4NixYxiNRtq0acP8+fNJT08nPz+fL7/8kk6dOuHt7Y3FYmHlypUMHDiwwq58cTMc9cPdXsWlrHL79evHp59+SkJCAklJSUyaNImoqKjrBuhpaWls27atxHxusAa4Xl5eeHl5ATjMPygoiDNnzrB9+3ZMJhNHjx5l0aJFhIWF4erqquXh7OxM+/btiY2NZevWrRgMBt577z06dOiAj48PS5Ys4cUXXyQvL4+MjAxtPrW7u/sN9U2NGjUIDQ1l1apVFBQUkJKSwgcffMCAAQNwcnJiw4YNbNmyBXd3d3r06MGrr75KXl4ee/fuZdasWXTt2vWmjmtsbCwbNmxAKcWyZcsA6zMCOp2O0aNH8+abb5Kbm6tduBRnNpuJjY3l8OHDZGVlMXLkSHx9fbU7FwsWLKBatWp07dqVFi1aANC1a1dmzpxJeno6Op2ON954g/fff18L8otfhAhxp8gc9EokJyeHffv2lZgfaDab6dq16w3/or0ZRqOR3377jc6dO5f4j+jKlSucP3+etm3b3vEyi5dx6dIlh+vs3gyj0cjOnTvp1KnTLfeTbZQFrH1eq1atG6rbX9FXd9KRI0fw8fGxu06zuLuys7NJSUnRggab/fv38/rrr/PPf/4TPz8/wDr/d+/eveh0OvLz8zl//jwhISHlUe0b5urqane7p6dnic9l9UO7du3uWv3KKrdv3748/fTTBAcHA/Dss8+WmDMOpdsB1p//4OBgAgLsvFmuGEf56/V6vvzyS8LDw7W0H3/8sd1jHRgYyKpVq7S0wcHB2jrs06ZN0x4wBujVqxfvvPOOwwu6a0fWXVxcWLx4MR07duTll18GICoqisGDBwOwceNGWrZsSY8ePZg2bRo9evTQylq4cCHt2rXjyJEjN3VcBwwYAIC3tzc7duzAw8MDgNatWxMcHMzYsWO1bcU1btyYCRMmaL9zbf2h0+mYOnUqHTt25IUXXtDa0Lx5c1q0aMHBgwepWbMmYJ2Ss3HjRnQ6HXq93m45js5nIW6UTtl72kNc16hRo5g3b95fXq5Op2PKlCmsWbOGo0ePlvju8OHDbNiwoUTwZLFYePzxx+/oHLlPPvmEzp0706hRI2bNmsWkSZNKBOhxcXGcPHmSvn373rEyr3Xw4EH27t1b6j9Bmw0bNpCdnc1TTz113byKiop49913GTVqlPYLGK6289qHjOx59913tbmoJpOJ06dP07hxY+0/qGvLe//993nhhReIj4/n4MGDZa7wUJEsX76c++67jy5dupR3Ve45U6dOtftzeyelpKSglMLf3/+ujZb/Fe0oT7fTvpSUFIxG4117YNVR/vn5+WRmZuLp6Ymvr2+ZeWRkZJCfn4+/v3+pQDs9PR2llHahd7PMZjOpqanodDr8/f3LTHf58mX0en2J37k3W1ZWVpY2R9wmIyOD6tWrc/r0ae2Cxp6MjAztLkNxBoOBzMxMnJ2dS/VDeno6wF/yUqy7wXZuHzt2rFzWZy+vuOleJSPolYhOp8PFxYWnn366xPZLly4xb948YmJi8PLyYtu2bSQmJjJkyBCWLFlCUlIS3t7ePPXUU3h6erJw4ULtrYNms5mYmBicnJxYuHAhLi4uZGdn88MPP2jzWWfPnk1GRgb333+/FhCbTCbi4uL4/vvvMZlM5OXl0bFjR8LDw8nJyWHhwoXk5OTg5+eHh4cHzzzzjBbkx8XF8eOPP5KTk0O3bt1wdXXlu+++QylFu3bt6N27N3q9XvvP5bvvvuP3338HoFGjRrRv357Dhw8D8Pvvv3Pffffx5Zdfkp+fT0BAgFbW0qVLtdULgBIXGZs3b9baGRQUxJ9//smOHTsAtDoUp9fr6dKlC23aWF/Fevz4cdauXcu6desAePzxxykqKmLWrFl4enpiNptZsGAB3bp14/Lly7z//vsUFBQQFhZGjx49OH36NP/5z38wm81anU+fPm23P4uLi4tjzZo1KKXw8fGhfv36REREsHz5ck6dOoVOpyMyMpKWLVuSkpJSql+ys7NZsmQJOTk5eHt789xzz5V4yMrNzY19+/axfft2AAYPHkzjxo3t5nX69OnrHkdxZ5UVFIm77273v6P8PT097Y7Q21OtWjWHc6dvN/C80YBbr9c7fNvpzZR1bX23bNlCz549GTFiRImVYuxx1Adubm4O23CvBubi3iRz0CsRvV6P0Whk0aJFLF68mMWLF7N8+XL8/f21+YkABw4cICAggOXLl2MymXjttdeoXbs2X3zxBWazmczMTKpWrUq3bt3IyMggNTWVvLw8kpKS6NKlCy4uLrRu3Zrq1atjsVho1KgRI0aM4MKFC1y8eJG8vDzS0tIwGo1kZWXxyCOP0L17d/bt24fRaGTp0qW4ubkxZswYCgsLSU5OLnE1bzQaycjIoFWrVtSpU4eNGzcSGRnJyJEjOXDgAMeOHdPSZmVlceDAAZ599lmee+454uPj8fHx4b777sPPz4+WLVuyaNEiQkJCeOWVV0hLS2P9+vX8+OOPnDt3jhEjRti9vVy8nfn5+ezYsYNBgwbx9NNPl6qDre/j4+M5cuQI+/bt45tvvqFOnToEBAQQGxuL2Wzm5MmT5Ofn8+ijjwLQvXt3XFxcMJvN9OnTh/DwcH777Tfy8vJYsWIFbdu25ZVXXiElJYX169c77E+boqIiVq9eTYsWLRgyZAiZmZmkpqayefNmzpw5w9ixY3nooYf45ptvyM7OttsvW7duRafT8dZbb+Hp6cl///vfUu00GAxER0fTpEkT7W2G9vK6meMohBC3q2bNmnz11Vd8/PHHleJ5C/H3JgF6JaPT6ahevTq+vr5UrVoVX19fnJycCAkJ4ejRo+Tl5VFQUEC7du1ITk7Gw8ODn3/+GVdXVwoKCjAajTg5OTF06FCaNGmCt7c3x44d49SpU7i6uhIYGIiLiwt+fn6YTCacnJzo3r07AQEBuLu7c/bsWW0k2mQyUatWLdq2bautjWt7tfXAgQP5xz/+Qa9evUo9YGMymahRowa9e/fm8uXL6HQ6Ll26xLFjx9Dr9dptRrAubxUVFUVsbCybNm3Stnt7e+Pp6Ul2djZGo5GioiJ+/fVXfH19ycjIICEhgYcffpiAgAD69++PTqcrcZHg4eGhtXPfvn3Uq1eP0NBQAgMDadSoEX/++WeJOtsC9O+//55t27ZRo0YNBg0aRKtWrVBKkZqaypEjRwgODqZWrVo4OTlRr149ra2hoaHa6PuRI0dQSvHoo4/i6elJ7969OX36NEajsVR/ZmRkaHU4deoUFouFXr16Ub9+fUJCQjCZTBw+fJju3bvj5+fHww8/jIeHB4cPH7bbLz4+PmRnZ7NixQo6derEkCFDSrTTYDDQunVrbY59amqqdjF2bV43cxyFEOJ2NW/enGHDhuHj41PeVRHitskUl0rG2dlZe5lCcQ888ACLFy9mx44d+Pv74+bmhtlsxtnZmdzcXADatGmDTqfDzc1NW2O2TZs2HDlyBC8vL0JDQ0utSuDm5lZi27VvnrPlYxvpNZvNKKVKpbuW7XZtWlqatm6u2WymSZMm3HfffdqSYGfOnGHlypXUrVuX+vXrc+nSJeDqizRs6SwWC7m5ufj5+VGnTh1+/vln7YHQG3mZyLVvXrz2dnJRURHh4eF256vXrFmT3bt3c+7cOaKiorTttnJtDxMVHw13cnLSRoDMZjMeHh7aA0nXprUxGo3o9Xq7I0e26UBKKZRS2lJr1/ZLp06d8PPzY//+/WzYsIFjx46VWDtbp9NpD3eZTCZ0Op22tvK1eRXvJ0fHUQghhBClyQh6JWI2mzGbzaSnp5OWlqb9MRqN1KlTBy8vL37//Xc6dOiAq6srnp6e1KhRgwEDBnDfffcRGxtbIngDaNWqFZmZmVy8eJEOHTpo39vSFE97I7y8vHBxceHgwYMA7Nq1y+5SZLZ8g4ODKSoqIiIigscff5zTp09rq6WAdeUaDw8PRo4cSWBgYKl6BQQEaK+hHjBgAEVFRZw5c4b69etr89bj4+NLPTBTvJ0hISGcP3+eoqIiioqKOHXqlN31pO0FzWB94v/IkSPo9XqCgoJKrMFrT506dTCbzZw9exaA33777YYe8q1duzZGo5GzZ89SUFDAyZMncXZ2JigoSGtrQkIChYWFNGnSxG6/zJs3j/T0dEaPHk3Pnj1JSUkpVc61dXfUx3D945iTk8P+/fuv2zYhhBDi70RG0CsRFxcXLBYLs2bNKrE9PDycjh070qxZM/bu3UvTpk0BiIyMZNmyZezbtw+A/v37o9frS4wWV61aFX9/f/Lz86lRowY6nY769euzfft2AgICSo0s24Jt2yjutaO5Tk5ODBgwgJUrV7Jr1y4AfHx8SqWzfW7cuDH16tVj+vTpgHW93TZt2nDs2DF0Oh21a9fGYDAwdepU7SUtP/74I82aNePbb7/l4MGDPPjgg9pauc7OztpDr7NmzWLq1KlaecWXxSreztGjR1OjRg2tDjVr1tSmo9hc2w/FNWnSBGdnZ+rXr49er8fHx4cqVaqwZMkSHn300VJt9/T0pG3btixdulSr8+DBg7l48aLDfgLrA2SdO3fW9rP1bbdu3Uq0tVWrVtSqVctuv5w5c4Zvv/2WPXv2YLFY6NGjR6n2FC/TyckJV1dXu3mdO3fuusfxxIkT/Pjjj7Rp06bMPhRCCCH+VpS4JdHR0eVSLqCmTJmimjVrdkfyM5lMKjk5WZnNZodpPv74Y/Xzzz+X2Jafn3/LZa5du1adPHlSKaXUpk2b1Pz586+7T3p6usrMzLT7ndFoVKmpqaXqVlBQoG3Lzs4ukcYmOTm5zHKLtzMlJcVuHteTl5enpk2bVqqsoqKiMvfLysq6bv2Ky8/PV8uWLdP6ac6cOSWOW3Jycqk+tNcvBQUFKjk5+aaPsaM+Lq6s41jZ3cmf2/JUWdrhSGVvn/j7sp3b5RX6lVfcdK+SEfS/ubKWxcrLy+Pjjz/G1dW11Jvu7L2Y4UY5Ozvzn//8Bzc3N4qKihg2bNh19ynrlcrXrldrq1vxlw4VXyqwuOstCVa8nf/4xz+uW89r/fnnn6xZs4agoKBSZV3vNdo+Pj439bCTu7s7GRkZzJgxA51Oh4eHR4k58fbaaq9f3N3db+mFTY76uDh5NbYQQghxfRKgC4e8vLyIiYnRVoK5U/r168cjjzxCamoqdevWrdRvXGvatCm1a9f+S9bP1el0jB07lpSUFAwGA/Xq1bvrZQohhBDizpMAXZTpbgWW3t7eNzTiWhn81S+3kJfVCCGEEPc2WcVFCCGEEEKICkQCdCGEEEIIISoQCdCFEEIIIYSoQCRAF0IIIYQQogKRAF0IIYQQQogKRAJ0IYQQQgghKhAJ0IUQQgghhKhAZB30e1RoaChTp04t72oIIW5CZfm5rSztcKSyt08IUfFJgH6Pio2NJTY2tryrIYS4QaGhoZXi57aytMORyt4+8fcVGhpa3lUQN0EC9HvY0aNHy7sKQogbNHXqVGJjY+/5n9vK0g5HKnv7xN+X7dwW9waZgy6EEEIIIUQFIgG6EEIIIYQQFYgE6EIIIYQQQlQgEqALIYQQQghRgUiALoQQQgghRAUiAboQQgghhBAViAToQgghhBBCVCASoAshhBBCCFGBSIAuhBBCCCFEBSJvEq1EDPnwmhcUFtvmBAxfBe0HWT9/8wqkboERf5RHDYUQQgghxPVIgF7JKCByKrSMAqMB9n8Gi6Ig6yPoMQFaPQnGgeVdSyGEEEII4YgE6JWMBQjsCnWaWD/f/zm4eMM3L0HnUZASB/np0KADnDsMi1pBCuAJPPMDtPgnJJ+ClQ0heBJ892/rKPxLe6H+A9Y8f3wH/vsm+ANNngRnLxjwGaSehzmBkPy//MbsgoYP/vV9IIQQQghxL5M56JWQuajk51ZPghkw5EHKUTi3FixmmNkK/ID/Pw66vgzzekFeBhhy4Tiw598wdjPcD3zewbrPtpmw4U0Y+gU8+D7sWAaH5kFhDrwTCFWAt05A6wj4OAyunPuLGy+EEEIIcY+TAP3vQJX8qHMBZYHBX8OINPAPhKBu1mQm4//SAC9dhGY9YcghyANyUuHX8TDgAwh7Gh59Bf75EhQB5w6BERibC3Uaw5MboRrw29y/sJ1CCCGEEJWATHH5GzCbSm/Tu0D6aXjZ7+q24ldrboBvrf99+F+AX5gLqUC9B66m86xp/fvUT9aA3NXd+lmnA18g7+KdaIEQQgghxN+HjKBXQnrXkp+3hFuvxKpUu7rt3GH4ZjJEb4A5RfDvGwik3bzAAyjIurrNmGP9u3pDyAHU/4J5paAA8Kxz6+0QQgghhPg7khH0SsYJiP8ePH2hKA92TYKD6fDcWuuouY35f1NZ/BtYR9hXBVg/FxU4zlvnBA2DYFk/CEqC1HPw7TSoAdQPAwPw63x4+P+D/ashCXhu5N1ppxB/R8ePH2f69OkYjUYeffRRhg4diqur9Yp8586dfPbZZ+Tk5DBx4kQefND6hHZ2djbz5s1j+/btPPDAA0RFZS+9AAAgAElEQVRHR1OnTsW5ck5OTmb69OnEx8fToUMHxo0bR/Xq1Vm/fj2JiYnodDoAvLy8yM/P5+mnn8bT05P169fzxRdfUKtWLcaMGUPr1q3Lra4AR48e5d133wUgJiZG63+bXbt2ceXKFfr37w/Avn372Lt3L3q9HovFgru7O0VFRURERBAYGFiqbEf538zxTU1NZerUqVy+fJn+/fvzxBNPoNPpMJlMLF26lLy8PC1tmzZtSrXBxmKxMHnyZF5//XWqVKmCwWBgyZIl2rEymUx4eXnh4eFBVFSUtv1ay5Ytw9XVlaioqOv2r018fDwjRoxgx44dODlV3DHG5ORklixZwmuvvVah6ykqLjlrKhkd8P37ML0VfBQGh3+Gp5dC28dLpgtoCgHA283geU/rPHIX4P1A68OgLqVyBr0zPP0n1AMm1oaPOlpPoJpAzfrwxFxYEQOjdbB4MAz62DofXQhx+xISEggNDaVVq1YMHz6cDz/8kJdeegmlFFu2bKFLly706tWLqKgowsLC+PXXX7FYLERGRrJ//34mTpzIxYsX6dChA7m5ueXdHACuXLlCy5YtsVgsTJo0iRMnTtC+fXsKCgrIyckhPT2d9PR0CgoKmDZtGtOnT8disfDpp58yZswYXnzxRdq0aUObNm1ISEgot7qePXuWFi1a8OCDDzJo0CDCwsLYtm0bYA2gd+/eTXR0NImJiVp+RqORS5cukZaWRkFBAZs3byYmJobs7OxSZTvK/2aOr8FgICIigtzcXEaPHs3kyZOZPn06gHZRl5eXR2FhIVlZWRiNRrv9cP78eWbPns3ChQtLpElJSdH+5OfnM3z4cDZs2IBSym4+f/zxB8OGDePKlSvX7d/izGYzer3eYdBf3oqKioiNjeWtt97ihx9+cNh+Ia5LiVsSHR1dLuUCasqUKapZs2a3tP/305T6KuLq58xkpfIyrf8uKlCqMK/s/Q+sV+r4z1c/fz1YqS//efVzfrZSl89czVMIYXU7P7dKKbVkyRIVGRmpfT569Khq0aKFMplMKioqSn3xxRfad8uWLVMtWrRQWVlZyt/fX509e1YppVROTo4C1KlTp8qtHcX99NNPqlGjRspkMimllFbfQ4cOlUiXm5urgoOD1f79+1V6eroC1OnTp7XvV65cqeLj4+9InRy1r6y6jhgxQr399tta2sWLF6uHH35Ymc1mtXr1aoX1SR41e/Zsu2VaLBYVFRWlFixYYPd7R/lnZ2ff8PFdtWqVCg0NVUajUSml1JEjR5S/v7/KyspScXFxqlu3btftm4KCAtWiRQsFKH9/f5Wenm433dGjR0t8/9VXX6mNGzdq32dlZang4GDl7++v9cmNngtxcXHK399fTZo0SQEqPDxcJSQkqNzcXDVkyJAS58GcOXPU0qVLS+yfkJCgJkyYoMxmc6nP2dnZavz48Vr7du3ape33yy+/qODgYAWoGTNmaPX85JNP1Pr161Xv3r3V7NmzVVxcnHa8o6KitHIqAtu5XV6hX3nFTfcqmeJSiYy+iQGFXXd48GF3GfnNKSo5vUYIcfMGDBjAwIEDyc/PJykpiU8//ZSHHnpIu33u7++vpXV1daV69eq4u7sTGhrKhx9+yJgxY1i9ejXBwcEVZopL06ZNWbp0KXq9HrCOzqakpJSa1vDCCy8wdOhQ2rVrx4kTJwD473//y5o1a/Dx8eGDDz6gQYMG5VZXvV5P3bp1tbSdOnXSRqQHDhyIUoqRIx3P91u7di2HDh1i+fLldr93lL/JZLrh46vT6WjYsKF2vgQHB1OlShUSEhLIzMxk27ZtdOrUiT179jBjxgxiYmJwdi4ZIri7u3P48GFOnTpFWFiY3brm5eUxePBgvv76a6pVsz74tH//fho3tt5OVUrx3HPPMXnyZHx9fTl9+vR1+/daKSkpZGZmcuzYMWbOnEn37t05evQoKSkpbNq0iQYNGlBYWMicOXOYNWtWiX0LCwvZsmWLNrJd/PPcuXO5dOkS586dY/fu3YSFhZGSkkJCQgIPPfQQ69atIzAwkIEDB5KXl8ekSZOIj4/nxRdfZPLkyTzyyCM0bNgQpRSrV69m7lxZxkzcOgnQK5HPr3Mn7czvkPArhEWDu9etl3P4Ozg6DwwJ0Gv11ZciCSHuHm9vbwDWrFnDoEGDAPjoo4/Q6XS0adOG8ePHExoaSmFhIRMnTqRp06Y4OzvTs2dP3njjDWbPng1A3759cXGpGFfMtWvXpnbt2gB8++239OvXj7Fjx5YIRv/44w9WrVqlBXK2AO6jjz5iyZIl7Nq1i2bNmvHnn38SGhr6l9fVz8+PnTt3MmbMGC2trY4mk50ltK6RkZFBTEwMa9as0QLihIQEDAYDADVq1HCYP+Dw+F65coW0tDQtj19++YWePXtqAbper8fd3Z2CggISEhLw9vbmzTffRKfTMXz4cBITE3n//fft1lmVMW1j6dKlAHTt2lXb9umnn2r/XrNmDUlJSTz11FOsWrVK234j54JNcHAwM2bMwMXFhU8++YTg4GBiY2N5/vnnefXVVxk1ahTHjx8nOzub9u3bl9jX1ne2KTLFPycmJuLp6YmLiwtDhgwhJCQEZ2dnFi1axOTJk3nssccAWLhwISNHjmTChAkYDAbeeecdJk2a5LBPhLgVMgf9byS4HXR/8faCc4CWveHJ/8KIoxKcC/FXGzhwICaTiU2bNvHSSy+RnJzMSy+9RLdu3QgMDKRJkyacOXMGsD5Q98Ybb3Dw4EGUUiQkJLB37152795dzq246uLFi7Rs2ZJ+/fqxfv16Zs2aVeKhujlz5jB+/Hj+8Y9/aNu8vb3Zt28fPXr04K233iI8PJytW7eWS109PDyoVatWqbnjvr6+2kVVWbZu3Yqvry+dOnUCrMHvmDFjCAkJISQkhJMnTzrM//Llyw6P73fffaflMW/ePEJDQ8nMzCyRR2FhIXXr1mXYsGEkJSXRu3dvIiIiWLVqFV9++aXd+fBlycvLY9asWXz66aelRt8BEhMTiYqKYsSIEZw5c4b4+Hjtb0f9a+8By7p162qBtV6vp0aNGgCEhYURFxfH5cuX2bJlC0888cR1j0HxuewvvvgiBw8epE6dOuh0Onbs2IGXlxdubm5MmzYNnU6HTqejW7du5ObmavPjq1atelP9JMSNkABdCCHuAc8//zwLFiwArEHJQw89RHBwMBcvXiQuLo633noLg8GAUoply5bh7e1NUlISwcHBNGvWDIDAwED69u3LyZMny7MpmoyMDLp27Up4eDiFhYXaCifFv//2228ZPHiwts1sNuPh4YGXl3WkQafTcf/99+Pu7l4uddXpdAQFBfHrr79qaWNjY6lZs+Z1V+9QSvHZZ5/x+uuvawGtTqdj3bp15ObmkpubS1hYmMP8yzq+//rXv7Q8XnvtNfz8/Pj6668xm82AdZWR3NxcqlSpwtatW8nKurp+bvXq1alSpcpN32mJi4sjOzubBx54wO73RUVFBAQE8Oqrr9KwYUPeeust5s6dy5tvvklaWlqZ50JxtjsDNoWFhQD4+fkxZMgQvvjiC5YtW6bdabqWyWTS7gJkZGSUCLD37NlDeno633//PePHj+fw4cNcuXKFmTNnYjQaKSgoIDExkfXr12tTeIS4GyRAF0KIe0CHDh34v//7P86dO4fBYGDZsmXk5ubSuHFj5s2bx4QJE9Dr9Zw5c4YJEyYwbtw4AgMDOXPmDNu3b8dkMnH06FEWLVrkcP7wX23r1q3k5uYybNgwzp49y4kTJzh27Jg2Mnn8+HGqVKlCcHCwtk9gYCC1atViwYIFFBUV8ccffzB//nyHQeFfUdd+/frx6aefkpCQQFJSEpMmTSIqKuq6AXpaWhrbtm0rdTw8PT3x8vLSLkIc5R8UFOTw+Lq6ump5ODs70759e2JjY9m6dSsGg4H33nuPDh064OPjw5IlS3jxxRfJy8sjIyNDm099sxc9O3bsoFevXqVGrTds2MCWLVsICgriwoULXL58GaUUX3/9NR9++CErV65k+/btZZ4LxcXGxmorxCxbtgywzmHX6XSMHj2aN998k9zcXO3CpTiz2UxsbCyHDx8mKyuLkSNH4uvrq925WLBgAdWqVaNr1660aNECsE7XmTlzJunp6eh0Ot544w3ef/99Lci3WCw31U9C3AiZg16JpKen88cff6CUwmw24+bmRpcuXUrMV7wdRqORnTt30qlTJ4e/uOPi4jAajTRt2vS6+dnSNmrUiD179hAWFnbX1ovdtWsXDRo0oGbNmre0/5kzZ7RpA2azmZo1a9KqVSvAujzY+fPnadu27R2r791grw9iY2Px9PQsse7yyZMn0ev1ZT50ZzQaOXDgAB07dmTXrl20adOGw4cPU69ePbtzRm+2nm3atMHDw+O28qls+vbty8aNG0scq23btuHt7c348ePp0aOHNgr773//mw4dOqDT6fjyyy8JDw/X9vn4448JCQn5q6tvV3Z2NikpKVogZLN//37atWtHQkJCqUDR3d2dFStW8PDDD/Pyyy8DMHv27FJ5/JV17du3L08//bR2IfHss8+WmDMO1qD7WleuXCE4OJiAgIAyy3aUv16vv+HjGxgYyKpVq7S0wcHB2jrs06ZNIzIykipVqgDQq1cv3nnnHYdLGdobWVdKsWfPHrsj3xs3bqRly5b06NHDYRuvdy5ca8CAAYB1utOOHTu03xetW7cmODiYsWPH2v0d0rhxYyZMmKD9vrb1h06nY+rUqXTs2JEXXngBgKioKJo3b06LFi04ePCg9ruzY8eObNy4EZ1Oh16vt1uO7f0EQtwqnSrraQ/h0KhRo5g3b95fXq5Op2PKlCmsWbOGo0ePlvju8OHDbNiwgcaNG2sPvJjNZm1k7XYVFRXx7rvvMmrUKIeB7po1a0hPTyc6Ovq6+dnSDhs2jLVr1/LEE0/ccD3j4uJYv349r7zyyg0F9e+++y4PPvggDz30kLbtk08+oXPnzqUeIrJnxYoVnD59mgYNGmA2mzl9+jQ+Pj6MHTuW06dPc/LkSfr27XtDdS8v9vrgp59+wt/fHw8PD60/ly1bRo0aNYiIiHCYV1ZWFrNmzeL1119n5cqVRERE8Pnnn9OtW7fbHsn8+uuviYiIwNfX97byqWimTp1q9+f2ZqWkpKCUws/Pr8Q8X7PZTGpqKm5ubqX6Lj8/n8zMTDw9PW+7X+9UO26X2WwmLS0NNze3OzoH+Hbal5KSgtFovO2L1JvN/2aOb0ZGBvn5+fj7+5cKtNPT07Vzq6Izm81kZWVpc8RtMjIyqF69OqdPny5x5+VaGRkZ2l2G4gwGA5mZmTg7O5fqh/T0dAC7K8vcC2zn9rFjx8plffbyipvuVTKCXonodDrt6XOAS5cusXDhQgoKClBKsXDhQrKzs/H09OSpp56iZs2afPfdd/z+++8ANGrUiMGDB7Np0yYuXrxIUlISo0aNYtOmTdpT/kCpgDguLo6VK1fi7OyM0WjURvi++eYbDh06hLOzM3369KFly5Z20yqltNUOtm7dys6dOwHrKEV4eHipOj722GOsXr0ak8nE6tWrefzxx1myZAlJSUl4e3vz1FNPUaNGDS0vDw8PDAZDif+MNm/eTHZ2Nj/88ANBQUFkZWXxn//8B7PZTEBAAM8880yJiwW9Xk9AQIA2F1YpxXvvvcfWrVsJDAzU6u+oP8+cOaP95zdo0CBCQkLYunUru3btwsvLC71ez6OPPkq9evXsHqfibrYMR31ga0dhYSEbN27U+rNatWp4eHiwadMm9u7di1KKzp0707179xL72oJD25xWV1dXNm/ezI8//oher+df//oXNWvWZOHChVgsFqpXr06vXr344osvyM/Px83NjcGDB5dKYxu1MxqNpY6rn58fX331FWfPnsXZ2ZlBgwbRqFGjMn8uKpviyykWp9frHV44e3p62h3BvZfp9XqHfVFe7nZ9HOV/M8e3WrVqDudO30uBp16vL1XfLVu20LNnT0aMGEFQUFCZ+zvqAzc3N4c/R/dS/4h7n8xBr0T0ej1Go5F58+Yxf/58Fi5cSO3atalSpQpLly7F3d2diRMnUrNmTZYuXUpWVhYHDhzg2Wef5bnnniM+Pp7U1FQKCwtJSkrin//8JwcOHODcuXOMGDHC7m3YoqIiVq1aRevWrRkyZIgWvO/evZsjR44QExNDjx49+Oabb0hPT7eb1mg0kpSUxLlz59i5cycDBw4kMjKSvXv3cunSpVJ1zM7O1qbDdO/eneXLl2MymXjttdeoXbs2X3zxBadOnWLnzp306dOHLl26lKp3ly5dcHFxoXXr1vj4+LBixQratm3LK6+8QkpKCuvXry+1jy0QBevFUEBAABcvXiQvL4+0tLQy+zMtLY3hw4fToEEDduzYwfnz59m5cycDBgygQ4cOZGVlkZWVZfc4FXczZZw+fbrMPgDrKJLBYCjRn506dSIgIIC9e/cSFRXFsGHD2LVrV6kVIMAa4CcnJ2tLwnl6ejJq1CiCgoJYtWoVZrOZzMxMqlatSs+ePdm8eTN+fn689dZb1K1bl+3bt6OU0tL06NFDy8/ecf3zzz85d+4cL7/8Mu3bt2ft2rUy/1MIAUDNmjX56quv+Pjjjyvsm0aFuFESoFcythUFgoODCQoKIikpiVOnTpGWlkZUVBRubm4MGDCAwsJClFJERUURGxvLpk2btDwMBgPt27fngQce4OzZszz88MMEBATQv39/dDpdiVtjFy9eRClFr169CAoKIiQkBJPJxJkzZ/Dy8uLAgQNkZGQA1rV97aW11fvAgQPUrl2bpk2b0qpVK6KiovDz87NbR39/f/R6Pb6+viQnJ+Ph4cHPP/+Mq6srBQUFxMXFUadOHdq2bUunTp3w9PQsUW8PDw9cXFzw8/MjPj4epRSPPvoonp6e9O7dm9OnT1838LPNi7VdaFStWtVuXYuKiujcuTMBAQG0bduW1NRUfv/9d62tnTt3xtPTE4PBYPc4FQ+Mb6aMkydPltkHxdn6s1q1atSoUYP7778fvV7Pd999x7lz54iOjnZ469x2p8FsNtOlSxdq1qxJZGQkBoOBK1eu4OTkxNChQ6lduzaRkZE0aNCAdevWcfHiRZydnTGZTCXS6PV6LfC/9ri6u7trD4ZVrVqVcePG3bXnFoQQ95bmzZszbNgwfHx8yrsqQtw2+Z+tEjGbzTg7O9OjRw969OjBsGHD8PDw4OzZs8DV9V5tQfHly5dZuXIlFy5cIDAwsMQLG2wPC2VnZ2uBqL2XbuTk5KDX67W8bcFSdnY2rq6u5OXlkZeXR7NmzTCZTHbTFld8LmH16tW5cOGC3ToqpbBYLBiNRq3dubm5ALRp00Yr/0Y5OTlp9bIt41ZW4KeU4tSpUyVuo545c8ZuXeHqdBCTyYROp8NgMJRoa3HXHqfiDyDdTBlZWVk33Ae2/rRxdXUlOjqahg0b8ttvvzF//nyuXLlyQ3nZODk54eHhgZubm1bPZcuWsXv3blxdXbX5/ECJNLY22DuuwcHBPPnkk3h5ebFp0yY+++yzEnc2hBBCiMpAAvRKRK/Xa1MKsrKyOHToEPn5+dSqVQt3d3cOHDgAWKefODk5kZ+fj4eHByNHjiQwMLBEoGMbaa1fv74239k20lycbT/b6Pj58+dxdnamTp06WCwWHn/8cR555BFiY2OpU6eO3bQ2DRo04Pz58xQVFXH+/Hk+//xzrly5YreOtuDV1dUVT09PatSowYABA7jvvvuIjY2lSZMmnD9/HoPBQHp6OoWFhSVuedpWujGbzVq+tguZ3377rdRDZzqdDpPJRF5eHqmpqaxbt46ioiKaN2+upcnJyXHYn9cKCgrS2hoXF6fNybZ3nIr30c2UERISUmYfFHftxVdiYiKff/45vXv31tZovnz5ssOywHr+HTt2DIC9e/fi5OSEm5ubVkfbVJbevXvTt29fbXQdKNUOFxcXu8d127ZtbN68mSeffJKYmBgKCgooLCzk999/19ZCFkIIIe518pBoJWOxWJg1a5b2uV27djRr1gydTseaNWvYvXs3Op2OyMhIateujcFgYOrUqbi6uqLT6fjxxx9xc3PTArnw8HBmzZrF1KlTAWugWnxUtmrVqrRq1Upbixasr5UODw9n5syZ2n4tW7akXr16dtOCNbhr3rw5e/bsYfr06QA0a9aM+vXrs2XLllJ17NOnD0opli9fTmRkJMuWLWPfvn0A9O/fnxYtWrBz507effddraziga5Op6N+/fps376dJk2a0LZtW22+t7Ozc4kXo4D1QiApKYkPP/xQ2//JJ5+kRo0aJCYmAtxQf4J1ZLl9+/bExcVpbQXrcmERERGljlPxkeWbKaNZs2Zl9kHxvqhXr57Wn0899RR16tTB19eXt99+W7uj0rhx4xL7XbvijrOzM+fPn9eOeZ8+fdDr9SXuzAQHB7Nu3TrWrVuHt7c3qamppKWl2V29x95xrVevHnv27NHKaNiwIQDff/899erVu+svqxFCCCH+Ekrckujo6HIpF1BTpkxRzZo1u+l9CwoKVHJysjIYDNo2o9GoUlNTtc/5+fl2901OTi4z7/T0dJWZmVlq++XLl0vl6SitTXZ2tsrLy7tuHU0mkzIajdq/k5OTldlsLlV+8fZeq3jdsrKyrttOe3bs2KHmz59fZl2vde7cObVmzRplMpmUwWBQb7/9trp8+bJSyv5xKu5Gy7C5Xh/YFO9Pm7S0tBJl3Yi0tLQyy0tLS1O5ublKKeuxvl6dHB3Xss6hiuhWf24rmsrSDkcqe/vE35ft3C6v0K+84qZ7lYyg/424u7uXGmG8dq1XRy+Hud4LfhwtWWVvWbDrvR752rfQOarjtcsg2qvj9ZY9K95eHx+fm3646M8//2THjh3aizRutD99fX05fvw4x48fx2w2ExQUpNXV3nEq7kbLsLnRpd/sjWLfyrJi19un+PfXHmt7dbqV4yqEEELcyyRAF+I2NG3alKCgoJteY9rHx4c333yTxMREnJ2db/kNp0IIIYSofCRAF+I23c4LYO7WGweFEEIIce+SVVyEEEIIIYSoQCRAF0IIIYQQogKRAF0IIYQQQogKRAJ0IYQQQgghKhAJ0IUQQgghhKhAJEAXQgghhBCiApEAXQghhBBCiApEAnQhhBBCCCEqEHlR0T0qNDSUqVOnlnc1hBA3obL83FaWdjhS2dsnhKj4JEC/R8XGxhIbG1ve1RBC3KDQ0NBK8XNbWdrhSGVvn/j7Cg0NLe8qiJsgAfo97OjRo+VdBSHEDZo6dSqxsbH3/M9tZWmHI5W9feLvy3Zui3uDzEEXQgghhBCiApEAXQghhBBCiApEAnQhhBBCCCEqEAnQhRBCCCGEqEAkQBdCCCGEEKICkQBdCCGEEEKICkQCdCGEEEIIISoQCdCFEEIIIYSoQCRAF0IIIYQQogKRN4lWIoZ8eM0LCq/ZHggMPwU169+ZchKPwzuhMP0yVPW/M3kKIYQQQggrCdArGQUM+ACa9gGjAYwFsKQTfNgA3jOBk768ayiEEEIIIcoiU1wqGQsQ0B7qNIH7W0KDjjDwv9ZR9cJcUArWjoXROuuf+X5QVGD9854ONn8AL/zvu20zr+Z75EcYp4MJOlgdWrLMLR9fze/rKDAbrfl9ooNts67ud/AbWBBsTfexzppGCCGEEEKUJAF6JeME5KaAsRAKsiEzGX7pB/8A3KvAb0vhpzkw6r/w8m8Qmw4/TrEG7peADa/Ck6ug+3OwZjxkpUD8bpjbCzr2h2e+h7hi5W2fDWtegmdXWvP7bTV80caa31lg7fMwfAPUBOb3B0sCRG+Ac1jLFUIIIYQQJckUl0pGByyKKr19zEbr9Jb728PzWyG0G+RngT9QkHw13Yi10PZxaB0JvyyApBNwegvUBYaut6Z5eT982B5Q8Ms46DsZHvhfmeN2wszO8FiG9XP0RmjZG6r9Dh+2g2cLwMUdtgB5F+9aNwghhBBC3LMkQK9kFPDkImgZCRYT5GXAnBD4oQ+0sIDeBVZ1h2IxOfWL7dugs/XfZpP1b5MB/pwGoTFX0+v/d9YU5kIqUL/H1e/cvKz5mE3Wv+u1sm530oMn1vLBOhXHSc4+IYQQQohSZIpLJWMBfOuBtx9UrWmdi971XUgDLGb4qiG4A+8lw+cK2jW2BvJlcQEyd139bAuyXdyt3+WlXv3OWGgdxbcF8ba0AMbbbZwQQgghxN+ABOh/A8Y8a9Cs0/0vgAd8/CFuF/x+Esw5Ze8fthJ+PwSn91kf7FzbzLpd7wIhQfD1AMhJg4IcmN8JmgBe1e5um4T4uzMYDHzwwQdEREQQHR3NiRMnSqXJyMhg8ODB5ORc54e8AjKZTCxZsoTZs2drf3bv3l2udUpOTuaFF14gIiKCqVOnkp6ern139OhRhg4dytChQ+3Wc9euXWzYsEH7vG/fPmbNmsXcuXOZPXs2CxcuZO7cuZw9e9Zu2Y7yz87O1s6DKVOmcOnSJYf1T01NZdy4cURFRfH111+jlCqV5o8//mDSpElYLBa7eRw8eJDHH3+cPn36sGTJEoxG69CLyWRi/vz59OnThwkTJnDs2DGH9Vi3bh39+vVj8ODBbNmyRdt+/PhxnnrqKZ544gmWLFlCUVFRqX3j4+N56KGHHNavInDUPiFuhgTolYy9A1rvQcjGun55t5VwCBjjBDM6Qwiw81v48yf7eTm7QftB0MoVPugAz3tCLldHyZ/4HdyAV2rAiz5gBp6+Yr9uxQbTcb2dRgrxN2exWIiIiGDdunW8/vrrBAcHExISQnx8vJZGKcVzzz3Hjh07MJmuc5usAsrJyWHixInk5eVRWFhIVlaWFgyWhytXrtCyZUssFguTJk3ixIkTtG/fnoKCAs6ePUuLFi148MEHGTRoEGFhYWzbtg2wBtC7d+8mOjqaxMRELT+j0cilS5dIS0ujoKCAzSXVYt8AABzxSURBVJs3ExMTQ3Z2dqmyHeVvsViIjIxk//79TJw4kYsXL9KhQwdyc3NL5WEwGIiIiCA3N5fRo0czefJkpk+fXiJNdnY2AwcO5NixY3aD9927d9O2bVsiIiJ44YUXePvtt4mJsc5/fPPNN5k2bRrjx4/nvvvuo3nz5iXOR5uZM2fyzDPPMGrUKCIjI+nZsydr164lISGB0NBQWrVqxfDhw/nwww956aWXStXDbDaj1+vR6XQ3cNT+eo7aJ8RNU+KWREdHl0u5gJoyZYpq1qzZLeeRn61URpJSFsv/Pmfd2H6ZyUplp9r/LvWCUlfO3XKVhKj0bvfntrhLly4pQF2+fFkppZTFYlHh4eFq/vz5WpolS5Yob29v5e/vr9LT0+9IuUrd2XaUJS4uTnXr1u2ul3MtR+376aefVKNGjZTJZFJKKZWVlaX8/f3VoUOH1IgRI9Tbb7+tpV28eLF6+OGHldlsVqtXr1ZYH8lRs2fPtlumxWJRUVFRasGCBXa/d5R/dna28vf3V2fPnlVKKZWTk6MAderUqVJ5rFq1SoWGhiqj0aiUUurIkSPK399fZWVlaXV45plnVGhoqOrbt68ym82l8pg0aZKaPHmy9vngwYPK399fJSUlKUAdO3ZM+65bt27qt99+U0op9dVXX6mNGzcqs9ms2rdvr3bs2KGlmzdvnoqMjFSLFy9WkZGR2vajR4+qFi1aaP1tExcXp/z9/dWkSZMUoMLDw1VCQoLKzc1VQ4YMUfHx8VraOXPmqKVLl5bYPyEhQU2YMEFrX/HP2dnZavz48QpQ/v7+ateuXdp+v/zyiwoODlaAmjFjhlavTz75RK1fv1717t1bzZo1y2H77PXnX812bpdX6FdecdO9Sh7Tq0RGV8wBhTJFToNeb5Z3LYS4t1StWpUdO3bg6+sLWEebL1y4QHBwMADHjh3jtddeIzY2lscff7w8q3rLLl26xLb/1969R1VVJv4ffx/O4S6KghBKJtiokIqWjpampZUrr5Vm1ExUZqmjq0lrdLLLylw1TZOWWs20spESpzLHyyq7mNcuipqkqCcvCWooyMUDyOF6YP/+4Hf2F+TgpRnjwHxea7WSc/Z+9vPszeVznv08z960ieuvv57U1FRef/11pk2bhs3WNH+2rrnmGpYtW4bVWvu0txMnTpCbm0u7du2wWq107NjR3Pb66683e//Hjx+PYRhMmjSp0bL//e9/s2fPHpYvX+7x/cbKd7lcxMfH8+qrrzJ16lQ+/vhjYmNj6dChQ4MyLBYLv/nNb/Dxqb3PGhsbS6tWrcjMzCQhIYHly5fjcDhYs2YN48eP91iP3//+92b7AQ4cOEBoaCjh4eHk5uaa/09LS2PTpk20a9cOgF27dtGtWzd8fHxYtGgRXbt2BWrv8mzfvp1evXoxfvx47r77bkpLS8nOzmbRokUMHjzYrG9dubm5FBYWsn//fhYuXMiwYcPYt28fubm5fPnll1x99dWUl5fz5ptvsnjx4nr7lpeXs2HDBrNnvu7Xb731FqdOneL48eNs27aNgQMHkpubS2ZmJoMHD2bVqlV07tyZ8ePH43Q6mTNnDkeOHGHGjBk8++yzDB06lL59+3psn6d2iJyPAnoL8o+GdyRFpAUKCgpiyJAhAKSnp3PnnXcCcN111+F0OrnnnntYu3YtUVFRFBUV1QtVzUVmZiYhISE888wzWCwWHnroIU6ePMkrr7zSJPWJiooiKioKgE8++YQxY8Ywffp0wsLC+Pbbb5k6daq5rft8X8zQIofDwbRp01i5cqX54SMzM5OKigoAwsPDGy0f4NZbb+Xpp5/mjTfeAGD06NH4+vqSl5dHQUGBWcbXX3/NrbfeagZFq9VKQEAAZWVlHDx4kCeeeILDhw9TWFgI4HEISVxcHFA7XGbRokXMmjWLDz74AJvNRvv27SkvL+fmm2/GbrcTERFB69atAVi0aJFZxoABAwDIzs5m5syZfPjhh+zdu5eQkBAAVq5cyd133w3A/PnzPdYjNjaW119/HV9fX1577TViY2Ox2+089thjzJo1i8mTJ/Pjjz9SXFxMv3796u3rPnfucut+ffLkSYKCgvD19SUxMZG4uDhsNhvvvvsuzz77rPlztmTJEiZNmsTMmTOpqKjgxRdfZM6cOfWOc277RC6VPtKJiDRDFRUVzJgxg4SEBCZNmoTdbic0NJS//e1vlJeXExISwvfff09paSk7duzA4XA0dZUvyf333092djYjR45kxIgRrFixgvfee8/jGO1fS1ZWFgkJCYwZM4bVq1ezePFiAgMDueKKKxrUKzQ01Ayd57Nx40ZCQ0O5/vrrgdpe16lTpxIXF0dcXByHDh1qtPzTp0/z9NNPk5aWhmEYZGZmsmPHDrZt28a6devMMt5++23i4+PN8O1WXl5OZGQkSUlJjB8/ntzcXH744QdKSkpIT0/3OOb/u+++IyAggFdffZW0tDQSExPN9wICAjhw4ABnzpyhX79+vPXWWx7bnJycTIcOHaiurub06dP06tXLfG/8+PG4XC6+/PJLnnjiCXJychrs37FjRzNYW61WwsPDARg4cCCHDx/m9OnTbNiwgXvvvfeC16DuB4AZM2aQlpZGhw4dsFgsbNmyheDgYPz9/Zk3bx4WiwWLxcLQoUMpKSmhrKz2cdht2rS56PaJXCwFdBGRZsYwDKZMmUJqaionT57kqaeewt/f33y/VatW9OjRgwEDBpCVlcVtt93G0aNHm7DGl27jxo0UFRWZX7dr145WrVrh6+t7nr0uH4fDwZAhQxg+fDjl5eXccccdQG3Ai4mJ4ZtvvjG3tdvtREZGXnBYg2EY/P3vf+epp54ye88tFgurVq2ipKSEkpISBg4c2Gj52dnZxMbG0qNH7dJanTt3ZvTo0Rw6dIj77rvPLGP27NmEhYXxr3/9i+rqaqB2RZqSkhICAwMJDw8nNTWVrl27cuedd5KRkcFtt93WYLLpDz/8wKBBg/jggw/IycmhT58+ABw9epTIyEhztaC2bdty7733smfPngarrfzzn/9k9uzZ7Ny5kxUrVhAREQHAY489xjvvvAPUhu7BgwcTGxtLVlbDJ9q57wy4lZeXAxAWFkZiYiLJycmkpKSYPfHncrlc5hAXh8NRL2CnpqZy5swZPvvsMx5//HH27t1LXl4eCxcupKqqirKyMk6ePMnq1atp27bhcmWNtU/kUimgi4g0M0ePHiU5OZnnnnvOHKKwb98+8vPzef7559m7dy+GYVBWVkbXrl0pKiqib9++TV3tS7J06VJmzJiB0+nE4XDw7LPPcvPNNxMQENAk9dm4cSMlJSXcf//9HDt2jIMHD7J//37KysoYM2YMixYtIjMzk+zsbObMmcOECRMuGNALCgrYtGkTAwcOrPd6UFAQwcHBBAcHAzRafkxMDBkZGWzevBmXy8W+fft49913GThwIH5+fmYZNpuNfv36Ybfb2bhxIxUVFfz1r3+lf//+tG/fns8++4zdu3djGAZHjhyhV69eZGdnNwigS5cuZeTIkfTv359Dhw5x8OBBDh48SGRkJK1ateKjjz6iqqqKjIwMXnrpJcaMGYOPjw9r1qxhw4YNlJeXM3/+fGbNmkVERAQHDx7kwIEDHDt2jP79+/PCCy9w/PhxKioqSElJoaSkhG7dujU4b3a7nTVr1mAYBikpKUDtHAGLxcKUKVN45plnKCkpMT+41FVdXY3dbmfv3r0UFRUxadIkQkNDzTsX77zzDm3btmXIkCFmz/eQIUNYuHAhZ86cwWKx8PTTT/PKK6+YId/9IeR87RO5VBqD3oJ89913hIWF0b17d/O13bt3Y7Va6d27dxPW7NeVmprKlVdeWW9SVXNTVVXF9u3bGTRoUL0/8na7naCgIDp37vyLys3Ly+PEiRNcd911/6Wawo4dO4iJianXU3T48GFOnDhhfh0YGEjv3r3NwHGx7HY7bdq0wc/Pj1OnTpGQkOBxu0OHDgF4/GPeErl7KkeMGFHv9TfeeMNc9q4ud69pczJv3jzGjh1Lq1atALj99tt58cUXm2x5veLiYnJzcxsMV9i1axejR4/mgQceMCfpTpw4sd6YcagN3efKy8sjNjaW6Ojo8x67sfKtVivvvfcew4cPN7ddsGCBOVa8rs6dO7NixQpz29jYWHbs2NFgfoJhGA2GbLhfP3v2LOvWrWPdunXm6+4gumjRIkaNGsUjjzwCwIMPPsiECRMA+PTTT0lISOC3v/0tAE8++SRPPvlkvfa9//77fPrpp/V+t23atKnRISrjxo0DICQkhC1bthAYGAhAnz59iI2NZfr06eZrdXXr1o2ZM2eavwPd58NisTB37lwGDBjAH//4RwAmTJhAz5496dWrF2lpaURGRgK14+g//fRTLBYLVqvVPI573XZP7VuzZo0misolsRiGh8VO5YImT57M22+//asf12Kx8Pzzz7Ny5Ur27dtX773169eTmprKY489RmhoKCdOnGDp0qWMGDGiwUSZ5mbNmjUUFxeTlJR0wW1ffvllhg4dav4x+CVee+01Bg0a9KufN/dxu3btyuLFi5kzZ069X+pfffUVERERjQbVC0lLSyMtLe28K0pcqpdffpkbbriBwYMHm699+OGHnDx5kujoaAzDID8/H4fDwezZs/Hzu/hV8JcvX05UVBShoaHs2LGjQeipe7zi4mIeffTR/7g9l8vcuXM9/tw2N792O86cOYNhGISFhf0qx/tP2pebm0tVVdVl6xxorPzS0lIKCwsJCgoyV/ZpjMPhoLS0lIiIiP/6cKHS0lLOnj2Lr6+vuYLLpcrNzTWv9/lW7KmurqaoqMgcI+7mcDho164dR48eNT/QeOJwOMy7DHVVVFRQWFiIzWZr8D3nfjDVL21bU3N/bze2zv3l1lS5qblSD3oLctttt3HkyBE++OADpk6dykcffURMTAzdu3fntddeo7i4mKCgIJKSkmjVqhXJyclMmTIFq9XKkiVLGDt2LO3btzfLO3v2LEuWLKG4uJiQkBAefvhhKisrSU5OprS0FH9/f+655x4iIyN5++238fX1paCggE6dOvHAAw+YwbKsrIx//OMf+Pv7k5eXR3h4OBMnTiQwMJDly5fz008/YbFYGDt2LAkJCdjtdlavXo3L5SImJoYbbrjBnAX//fff17tVv27dOr7//nsAunbtyj333IOfnx/r16/niy++wGq1ct999xETE8PWrVvZsmULAH379mXkyJHY7XbS09NJTEzE6XSSnJxMly5dKC4u5vPPPycmJsacgASwdu1a9uzZg81mY9SoUTidTvbs2cOUKVPw8fFh6dKldO/enS5duvDee+9RWlpKdHQ0Dz74IBUVFSxZsoSamhr8/Pyorq5m2rRp+Pj4sGTJEnx9fc3jXnHFFUBtj6jD4eCqq64iKSkJwzBwuVwcPnyYzz77DJfLhdPpZMCAAQwfPpzDhw+zcuVKDMOgdevWdOnSpV4vq81m4/Tp07zyyiuUlZUxcOBAbrnlFnJzcxvU9+jRo3zxxRecPXuWoUOHemyT1Wr1uEKIxWLhxhtvND8kVVdX89JLL5l/PJcuXUp2djYhISEkJSURHh7u8VrabDZsNhtWqxVfX19Wr16NYRjcddddVFZWsnjxYpKSksztpOVpTmHoco83bqz8oKAgjz30nrRt29bj2On/hkupR2Mu9hxardYG3xsbNmzg1ltv5eGHHyYmJua8+zd2Dvz9/c2e8nM1p+9Faf50v6WFuffee80JLeXl5SQmJrJs2TICAgL485//TGRkJMuWLcPlcpmrAhiGgcPhaDCZZ9myZfj7+zNz5kyg9jbl+vXrCQsL47nnnqNjx45s3rzZvPUZHR1NUlISWVlZ9Sb2VFVVUVJSgq+vL0888QROp5O1a9eyfv16MjIymD59OoMHD2bt2rWUlJTwySefEB8fz1NPPcXPP/9McXExnTp1IiwszJyUBFBUVMTu3buZOHEijzzyCEeOHCE/Px+o/UMxefJkYmJiWLFiBceOHWPLli3cfffdPPDAA+zevZv9+/dTUVFhToRyn5NBgwbh6+tLnz596oXzbdu2kZ6ezrRp07jllltYu3YtHTp0ID8/n8LCQpxOJ1lZWURHR/Puu+8SFxfHn/70JwoKCsxgWVhYSJs2bRg6dCgOh4P8/HycTifZ2dnceOON5nHbtWtHTU0NXbt25eGHH+bnn38mKysLh8OB0+mkqqqKoqIibr75ZoYNG8bOnTtxOp18/PHH9OrVi8TERAoLC83z4Wa1WqmurmbUqFEMHz6c7du3U1FR4bG+VVVVOBwOevfuTY8ePRptk9VqbTDkxmq1cvDgQXbt2sXOnTtJSUnBx8eHkJAQli9fjsvlYvbs2URFRZGcnIzD4Wj0WtbVsWNH7HY71dXVHDp0iNLSUkJDQ6murubKK6+81B8XEWlBIiMjef/991mwYIHXPmlU5GKpy6mFadeuHUOGDGHLli2MHTuWqqoqCgoK+MMf/oC/vz/jxo0ze9Pdv8Dc4+jqcjqdFBQUMHnyZEJCQnjooYdwOBxERESQlpbGqlWryMrKomPHjrhcLvz8/Bg9erS5tu6xY8fo1KkT8H/rzN511120atWKUaNGsWbNGn7++WeGDRtGWFgYN910E7t27eLIkSOEhISwb98+rFYriYmJdOnShYyMDDMMurVp04YJEyZgt9s5deqU+Xp1dTU33XQTkZGRjB07lvnz5/Pdd99x5ZVXEh8fD9T20B44cKDeeH33uQgMDMTX17fB7c2MjAyCg4PNyVRQO7Y6MDCQH3/80fx3QEAAVVVVVFZW8s033xAaGorD4cDlcuHj48Pvfvc7/Pz8CAkJYf/+/YSFheHn50fnzp3N47q3HTZsGL6+vuY5dXO5XFxxxRVcd911VFZWsnnzZtLT06mpqeH222/HarUSFxfXYGk2l8tFeHg48fHxVFZW8tVXX3H8+PFG6xseHs7IkSMpKCjwuI1b3VvM7mt+4sQJc7WFs2fPEhoaSmBgIDk5OURGRrJ161b8/PwoKyujdevWHq/luXr37s2XX35Jfn4+6enpxMbGmrfpz62DiPxv6dmzJz179mzqaoj8Vyigt0B9+/bl66+/NgMy/N9ar+4HZwQEBNQLu41NInMPGwgMDKSmpoaUlBQKCwu55ppruPrqq83e53MDvqfhBp56NNzhyjAMDMMgMDCQiRMnmr3VP/zwAyNGjPA4Xi4jI4OPPvqIjh070qVLl0aDnY+PDzabrcFDQ9y3Yt11t9ls5x2XV1xcjJ+fH06nE8Mw6NGjB0FBQVx77bWkp6djs9lISEgwJ/DV1NRQUlJCWFiY+WQ/f39/83ju/YKDg4mPj28wgcjf37/ea+eeU3c57rWKXS4XVqv1gj1H7jHg7v3c19BTfd3nyL3c3bnbWCwWj+e2srKSYcOGmWs7Z2dn884775CdnU11dTU2m8087rXXXktmZuZFXUs/Pz8iIyPZtm0bx48fNyehBQQENMuJkCIiIp5oiEsL5nK5CA4OJiAggN27dwO1wzR8fHywWq1UVFRQVlbGjz/+SFlZWb1gFxwcjK+vLzt37gRq13b9/PPPKSwsZOTIkYwePZq8vDwzQF5MOEpPTwdqV5u56qqriImJMcccZ2ZmUl5eTnh4OPPnz6dbt248/vjjREdHc/z4cY/lnz17lsDAQCZNmkTnzp3NbaxWK/v37wdqVxjx8fEhPj6eEydOUFlZSWVlJT/99JM5zrugoICamho2btxoflCorq5ucMwOHTpQU1PDXXfdZT4tr7q6mr59+5KXl0d2djb9+vUjOjoai8VCnz59GDduHJWVlWRkZDQ4T71796awsJCsrCz69+/f4LiXGjjbt29PVVUVx44do6ysjEOHDl3UuOzIyMgL1vd8bRowYIDHVR/qPuSkdevWWCwWAgICCAoKIjw8nHHjxtGpUyfsdnuj19KTAQMGkJ6ejtVqNceZ9uzZ84JjTkVERJoL9aC3YO5wNmLECFauXMm2bdvMyZht27YlJCSE+fPnA5hPSKvr9ttvZ82aNezYsQOLxcKECRPYtGkTq1atYtWqVYSEhJCfn09BQUGDHnRPy0lt3bqVrVu3YrFYmDhxIq1bt2bx4sXMnTsXqA2s4eHhxMXFsWTJEqxWKzU1NYwYMYLs7Gw++eQTUlNTzUdFR0VFUVFRwdy5c/Hz88NisfDFF19gs9k4ceKEWe6oUaPo0aMH3377LX/5y1+A2lB67bXXUlRURHl5OfPmzQNqe2ItFgtdunRh8+bNdO/e3Zw4O3z4cBYuXGiWm5CQYK6YEBERgWEY5tc33HCDuT6vzWYzl747d4hOREQEpaWlhIeH1ztudHR0o+e07tCkusLCwhg0aBDLli0zX3M/aruuc/fz8/PzWN/jx4+b2za2jWEYbNq0iauuuspcDq+x4wCcOnWKsWPHkpKSYn74u+OOOxq9lv7+/g3a2717d2w2G126dDHP0fbt24mKivrFy0+KiIh4FUN+kUcffbRJjgsYzz//vNGjR49L2q+srMzIyckxKioq6r1eUFBgVFdXN7qfy+UyCgsLG+xTUlJiGIZhFBcXX/DYJSUlxgsvvGCcOnXKKCgoaPB+Tk5Og2OcOXPGyMnJqVe3srKyBvtWVVUZ+fn55telpaX16nlue3Nzc+ttbxi1bTz3tXPLquv06dONvldXcXGxx3LrWrBggbF169aLOu6FlJaWGikpKea5fPPNNxuUfT4XU9+L2eZiuFyuBtf3fNeyLqfTacybN8/Iycn5j+vxa/olP7feqKW0ozEtvX3yv8v9vd1U0a+pclNzpR70/xEBAQEen8B3oWWjrFZrg+ELdfdp7CES5zL+/wRPT8fztKSVpyWwPNX/3LVq6z6YwtOx6i4j6Wa1Wj2usezpIRdw8cuAne/cOJ1OFixYgJ+fX4OnCDZ23AsJCAjA4XDw+uuvm5NdL2Ud94u5lhd7vS/EarU2uO7nu5ZuBw4cYOXKlcTExDS6FJqIiEhzp4Aul11wcDCzZs1qskd0e6Pg4GCmTZtGaGjof+3pchaLhenTp5Obm0tFRUWLXHbwmmuuISoqSusRi4hIi6aALr8KhfOGLlfIvNwPS2lqCuciItLSaRUXEREREREvooAuIiIiIuJFFNBFRERERLyIArqIiIiIiBdRQBcRERER8SIK6CIiIiIiXkQBXURERETEiyigi4iIiIh4ET2oqJmKj49n7ty5TV0NEbkELeXntqW0ozEtvX0i4v0U0Jshu91u/icizUtL+bltKe1oTEtvn4h4NwX0ZmjFihVNXQURERERuUwU0JsZwzCaugoiIiIichlpkqiIiIiIiBdRQBcRERER8SIK6CIiIiIiXkQBXURERETEiyigi4iIiIh4EQV0EREREREvooAuIiIiIuJFFNBFRERERLyIArqIiIiIiBdRQBcRERER8SIK6CIiIiIiXkQBXURERETEiyigi4iIiIh4EQV0EREREREvooAuIiIiIuJFFNBFRERERLyIArqIiIiIiBdRQBcRERER8SK2pq5AczZ58uSmroKIiIiItDAWwzCMpq6EiIiIiIjU0hAXEREREREvooAuIiIiIuJFFNBFRERERLyIArqIiIiIiBdRQBcRERER8SIK6CIiIiIiXkQBXURERETEiyigi4iIiIh4EQV0EREREREvooAuIiIiIuJFFNBFRERERLyIArqIiIiIiBdRQBcRERER8SIK6CIiIiIiXkQBXURERETEiyigi4iIiIh4EQV0EREREREvooAuIiIiIuJFFNBFRERERLyIArqIiIiIiBdRQBcRERER8SIK6CIiIiIiXkQBXURERETEiyigi4iIiIh4EQV0EREREREvooAuIiIiIuJF/h/hVMbzgiQUnAAAAABJRU5ErkJggg==;" vertex="1" parent="1">
          <mxGeometry x="-10" y="40" width="744" height="405" as="geometry" />
        </mxCell>
      </root>
    </mxGraphModel>
  </diagram>
</mxfile>
